{"asset":{"version":"2.0","generator":"THREE.GLTFExporter"},"scenes":[{"nodes":[2],"name":"AuxScene"}],"scene":0,"nodes":[{"mesh":0},{"mesh":1},{"matrix":[-0.7314111450744636,0,0.6819367542966346,0,0,1,0,0,-0.6819367542966346,0,-0.7314111450744636,0,0,0,0,1],"children":[0,1]}],"bufferViews":[{"buffer":0,"byteOffset":0,"byteLength":1872,"target":34962,"byteStride":12},{"buffer":0,"byteOffset":1872,"byteLength":1872,"target":34962,"byteStride":12},{"buffer":0,"byteOffset":3744,"byteLength":1248,"target":34962,"byteStride":8},{"buffer":0,"byteOffset":4992,"byteLength":576,"target":34963},{"buffer":0,"byteOffset":5568,"byteLength":7776,"target":34962,"byteStride":12},{"buffer":0,"byteOffset":13344,"byteLength":7776,"target":34962,"byteStride":12},{"buffer":0,"byteOffset":21120,"byteLength":5184,"target":34962,"byteStride":8}],"buffers":[{"byteLength":26304,"uri":"data:application/octet-stream;base64,"}],"accessors":[{"bufferView":0,"componentType":5126,"count":156,"max":[2.4623990058898926,20,1],"min":[-4.369919776916504,0,-1],"type":"VEC3"},{"bufferView":1,"componentType":5126,"count":156,"max":[0.9998000860214233,1,0.9998000860214233],"min":[-0.9998000860214233,-1,-0.9998000860214233],"type":"VEC3"},{"bufferView":2,"componentType":5126,"count":156,"max":[1,1],"min":[0,0],"type":"VEC2"},{"bufferView":3,"componentType":5123,"count":288,"max":[155],"min":[0],"type":"SCALAR"},{"bufferView":4,"componentType":5126,"count":648,"max":[8.982438087463379,30.27170181274414,8.557211875915527],"min":[-9.85761547088623,8.394966125488281,-6.572885990142822],"type":"VEC3"},{"bufferView":5,"componentType":5126,"count":648,"max":[0.8459901213645935,0.8734740614891052,0.8848481178283691],"min":[-0.8459901213645935,-0.8734740614891052,-0.8848481178283691],"type":"VEC3"},{"bufferView":6,"componentType":5126,"count":648,"max":[1.125,0.8838602304458618],"min":[0,0.11613976210355759],"type":"VEC2"}],"materials":[{"pbrMetallicRoughness":{"baseColorFactor":[0,0,0,1],"metallicFactor":0,"roughnessFactor":0.9},"extensions":{"KHR_materials_unlit":{}}},{"pbrMetallicRoughness":{"baseColorFactor":[0.00392156862745098,0.5058823529411764,0.33725490196078434,1],"metallicFactor":0,"roughnessFactor":1}}],"meshes":[{"primitives":[{"mode":4,"attributes":{"POSITION":0,"NORMAL":1,"TEXCOORD_0":2},"extras":{"mergedUserData":[{},{},{}]},"indices":3,"material":0}]},{"primitives":[{"mode":4,"attributes":{"POSITION":4,"NORMAL":5,"TEXCOORD_0":6},"extras":{"mergedUserData":[{},{},{},{},{},{}]},"material":1}]}],"extensionsUsed":["KHR_materials_unlit"]}