{"asset":{"version":"2.0","generator":"THREE.GLTFExporter"},"scenes":[{"nodes":[2],"name":"AuxScene"}],"scene":0,"nodes":[{"mesh":0},{"mesh":1},{"matrix":[-0.3338537799746797,0,0.9426248742720609,0,0,1,0,0,-0.9426248742720609,0,-0.3338537799746797,0,0,0,0,1],"children":[0,1]}],"bufferViews":[{"buffer":0,"byteOffset":0,"byteLength":624,"target":34962,"byteStride":12},{"buffer":0,"byteOffset":624,"byteLength":624,"target":34962,"byteStride":12},{"buffer":0,"byteOffset":1248,"byteLength":416,"target":34962,"byteStride":8},{"buffer":0,"byteOffset":1664,"byteLength":192,"target":34963},{"buffer":0,"byteOffset":1856,"byteLength":137904,"target":34962,"byteStride":12},{"buffer":0,"byteOffset":139760,"byteLength":137904,"target":34962,"byteStride":12},{"buffer":0,"byteOffset":277664,"byteLength":91936,"target":34962,"byteStride":8},{"buffer":0,"byteOffset":369600,"byteLength":42432,"target":34963}],"buffers":[{"byteLength":412032,"uri":"data:application/octet-stream;base64,"}],"accessors":[{"bufferView":0,"componentType":5126,"count":52,"max":[1,35,1],"min":[-1,0,-1],"type":"VEC3"},{"bufferView":1,"componentType":5126,"count":52,"max":[0.9996695518493652,1,0.9996695518493652],"min":[-0.9996695518493652,-1,-0.9996695518493652],"type":"VEC3"},{"bufferView":2,"componentType":5126,"count":52,"max":[1,1],"min":[0,0],"type":"VEC2"},{"bufferView":3,"componentType":5123,"count":96,"max":[51],"min":[0],"type":"SCALAR"},{"bufferView":4,"componentType":5126,"count":11492,"max":[10.521574974060059,35.425392150878906,9.965557098388672],"min":[-10.706007957458496,7.106198787689209,-10.916011810302734],"type":"VEC3"},{"bufferView":5,"componentType":5126,"count":11492,"max":[0.999019980430603,0.8909679055213928,0.9992382526397705],"min":[-0.9989768862724304,-0.9477628469467163,-0.9987292289733887],"type":"VEC3"},{"bufferView":6,"componentType":5126,"count":11492,"max":[1,1],"min":[0,0],"type":"VEC2"},{"bufferView":7,"componentType":5123,"count":21216,"max":[11491],"min":[0],"type":"SCALAR"}],"materials":[{"pbrMetallicRoughness":{"baseColorFactor":[0,0,0,1],"metallicFactor":0,"roughnessFactor":0.9},"extensions":{"KHR_materials_unlit":{}}},{"pbrMetallicRoughness":{"baseColorFactor":[0.14901960784313725,0.24313725490196078,0.19215686274509805,1],"metallicFactor":0.5,"roughnessFactor":0.5}}],"meshes":[{"primitives":[{"mode":4,"attributes":{"POSITION":0,"NORMAL":1,"TEXCOORD_0":2},"extras":{"mergedUserData":[{}]},"indices":3,"material":0}]},{"primitives":[{"mode":4,"attributes":{"POSITION":4,"NORMAL":5,"TEXCOORD_0":6},"extras":{"mergedUserData":[{},{},{},{},{},{},{},{},{},{},{},{},{},{},{},{},{},{},{},{},{},{},{},{},{},{},{},{},{},{},{},{},{},{},{},{},{},{},{},{},{},{},{},{},{},{},{},{},{},{},{},{},{},{},{},{},{},{},{},{},{},{},{},{},{},{},{},{},{},{},{},{},{},{},{},{},{},{},{},{},{},{},{},{},{},{},{},{},{},{},{},{},{},{},{},{},{},{},{},{},{},{},{},{},{},{},{},{},{},{},{},{},{},{},{},{},{},{},{},{},{},{},{},{},{},{},{},{},{},{},{},{},{},{},{},{},{},{},{},{},{},{},{},{},{},{},{},{},{},{},{},{},{},{},{},{},{},{},{},{},{},{},{},{},{},{},{},{},{},{},{},{},{},{},{},{},{},{},{},{},{},{},{},{},{},{},{},{},{},{},{},{},{},{},{},{},{},{},{},{},{},{},{},{},{},{},{},{},{},{},{},{},{},{},{},{},{},{},{},{},{}]},"indices":7,"material":1}]}],"extensionsUsed":["KHR_materials_unlit"]}