<svg width="542.6224853515624px" height="218.0287109375px" xmlns="http://www.w3.org/2000/svg" viewBox="-21.311242675781216 -34.01435546875 542.6224853515624 218.0287109375" style="background: none;" preserveAspectRatio="xMidYMid"><defs><filter id="editing-hover" x="-100%" y="-100%" width="300%" height="300%"><feFlood flood-color="rgba(1.9607843137254888%,16.862745098039188%,29.01960784313726%,0)" result="flood"></feFlood><feComposite operator="in" in2="SourceAlpha" in="flood" result="shadow"></feComposite><feOffset dx="-4" dy="-4" in="SourceGraphic" result="offset-1"></feOffset><feOffset dx="4" dy="4" in="shadow" result="offset-2"></feOffset><feMerge><feMergeNode in="offset-2"></feMergeNode><feMergeNode in="offset-1"></feMergeNode></feMerge></filter></defs><g filter="url(#editing-hover)"><g transform="translate(58.107502937316895, 136.5984344482422)"><path d="M88.57-51.27L88.57-51.27L88.57-51.27Q88.43-50.59 87.94-50.20L87.94-50.20L87.94-50.20Q87.45-49.80 86.87-49.80L86.87-49.80L86.87-49.80Q85.99-49.80 85.45-50.37L85.45-50.37L85.45-50.37Q84.91-50.93 84.91-51.66L84.91-51.66L84.91-51.66Q84.91-52.39 85.06-53.10L85.06-53.10L85.06-53.10Q85.21-53.81 85.21-54.49L85.21-54.49L85.21-54.49Q85.21-58.06 83.01-60.89L83.01-60.89L83.01-60.89Q80.81-63.72 76.78-65.65L76.78-65.65L76.78-65.65Q72.75-67.58 66.99-68.60L66.99-68.60L66.99-68.60Q61.23-69.63 54.15-69.63L54.15-69.63L54.15-69.63Q48.73-69.63 43.24-68.92L43.24-68.92L43.24-68.92Q37.74-68.21 32.69-66.87L32.69-66.87L32.69-66.87Q27.64-65.53 23.24-63.50L23.24-63.50L23.24-63.50Q18.85-61.47 15.60-58.81L15.60-58.81L15.60-58.81Q12.35-56.15 10.50-52.91L10.50-52.91L10.50-52.91Q8.64-49.66 8.64-45.80L8.64-45.80L8.64-45.80Q8.64-42.82 9.94-40.55L9.94-40.55L9.94-40.55Q11.23-38.28 13.48-36.60L13.48-36.60L13.48-36.60Q15.72-34.91 18.77-33.72L18.77-33.72L18.77-33.72Q21.83-32.52 25.39-31.71L25.39-31.71L25.39-31.71Q28.96-30.91 32.81-30.40L32.81-30.40L32.81-30.40Q36.67-29.88 40.58-29.54L40.58-29.54L48.10-28.91L48.10-28.91Q53.71-28.42 58.15-27.88L58.15-27.88L58.15-27.88Q62.60-27.34 65.97-26.51L65.97-26.51L65.97-26.51Q71.58-25.10 74.27-22.46L74.27-22.46L74.27-22.46Q76.95-19.82 76.95-15.43L76.95-15.43L76.95-15.43Q76.95-11.18 74.61-7.96L74.61-7.96L74.61-7.96Q72.27-4.74 68.21-2.54L68.21-2.54L68.21-2.54Q64.16-0.34 58.74 0.78L58.74 0.78L58.74 0.78Q53.32 1.90 47.12 1.90L47.12 1.90L47.12 1.90Q40.38 1.90 35.28 1.00L35.28 1.00L35.28 1.00Q30.18 0.10 26.73-1.00L26.73-1.00L26.73-1.00Q23.29-2.10 21.48-3.03L21.48-3.03L21.48-3.03Q19.68-3.96 19.53-4.05L19.53-4.05L19.53-4.05Q18.65-4.54 18.65-5.62L18.65-5.62L18.65-5.62Q18.65-6.45 19.24-6.96L19.24-6.96L19.24-6.96Q19.82-7.47 20.51-7.47L20.51-7.47L20.51-7.47Q21.04-7.47 21.48-7.18L21.48-7.18L21.48-7.18Q21.53-7.18 23.17-6.32L23.17-6.32L23.17-6.32Q24.80-5.47 28.05-4.44L28.05-4.44L28.05-4.44Q31.30-3.42 36.08-2.59L36.08-2.59L36.08-2.59Q40.87-1.76 47.22-1.76L47.22-1.76L47.22-1.76Q53.52-1.76 58.35-2.78L58.35-2.78L58.35-2.78Q63.18-3.81 66.48-5.64L66.48-5.64L66.48-5.64Q69.78-7.47 71.46-9.94L71.46-9.94L71.46-9.94Q73.14-12.40 73.14-15.28L73.14-15.28L73.14-15.28Q73.14-16.99 72.53-18.24L72.53-18.24L72.53-18.24Q71.92-19.48 70.85-20.39L70.85-20.39L70.85-20.39Q69.78-21.29 68.29-21.92L68.29-21.92L68.29-21.92Q66.80-22.56 65.04-23.00L65.04-23.00L65.04-23.00Q63.18-23.49 61.06-23.83L61.06-23.83L61.06-23.83Q58.94-24.17 56.69-24.41L56.69-24.41L56.69-24.41Q54.44-24.66 52.17-24.85L52.17-24.85L52.17-24.85Q49.90-25.05 47.71-25.24L47.71-25.24L40.19-25.88L40.19-25.88Q31.30-26.61 24.68-28.15L24.68-28.15L24.68-28.15Q18.07-29.69 13.67-32.10L13.67-32.10L13.67-32.10Q9.28-34.52 7.08-37.89L7.08-37.89L7.08-37.89Q4.88-41.26 4.88-45.75L4.88-45.75L4.88-45.75Q4.88-50.34 6.96-54.17L6.96-54.17L6.96-54.17Q9.03-58.01 12.62-61.08L12.62-61.08L12.62-61.08Q16.21-64.16 21.02-66.43L21.02-66.43L21.02-66.43Q25.83-68.70 31.30-70.21L31.30-70.21L31.30-70.21Q36.77-71.73 42.63-72.49L42.63-72.49L42.63-72.49Q48.49-73.24 54.15-73.24L54.15-73.24L54.15-73.24Q61.23-73.24 66.48-72.39L66.48-72.39L66.48-72.39Q71.73-71.53 75.46-70.19L75.46-70.19L75.46-70.19Q79.20-68.85 81.59-67.14L81.59-67.14L81.59-67.14Q83.98-65.43 85.45-63.77L85.45-63.77L85.45-63.77Q88.92-59.72 88.92-54.54L88.92-54.54L88.92-54.54Q88.92-52.83 88.57-51.27ZM106.45-5.37L106.45-5.37L106.45-5.37Q105.22-5.37 104.30-5.57L104.30-5.57L104.30-5.57Q103.56-4.10 102.54-2.86L102.54-2.86L102.54-2.86Q101.51-1.61 100.17-0.68L100.17-0.68L100.17-0.68Q98.83 0.24 97.17 0.78L97.17 0.78L97.17 0.78Q95.51 1.32 93.55 1.32L93.55 1.32L93.55 1.32Q91.26 1.32 89.36 0.51L89.36 0.51L89.36 0.51Q87.45-0.29 86.04-1.73L86.04-1.73L86.04-1.73Q84.62-3.17 83.84-5.20L83.84-5.20L83.84-5.20Q83.06-7.23 83.06-9.67L83.06-9.67L83.06-9.67Q83.06-12.79 84.18-15.11L84.18-15.11L84.18-15.11Q85.30-17.43 86.77-18.97L86.77-18.97L86.77-18.97Q88.23-20.51 89.70-21.26L89.70-21.26L89.70-21.26Q91.16-22.02 91.89-22.02L91.89-22.02L91.89-22.02Q92.72-22.02 93.14-21.58L93.14-21.58L93.14-21.58Q93.55-21.14 93.55-20.41L93.55-20.41L93.55-20.41Q93.55-19.58 93.04-19.17L93.04-19.17L93.04-19.17Q92.53-18.75 91.75-18.36L91.75-18.36L91.75-18.36Q90.97-17.97 90.09-17.26L90.09-17.26L90.09-17.26Q89.21-16.55 88.45-15.48L88.45-15.48L88.45-15.48Q87.70-14.40 87.21-12.94L87.21-12.94L87.21-12.94Q86.72-11.47 86.72-9.67L86.72-9.67L86.72-9.67Q86.72-8.06 87.21-6.67L87.21-6.67L87.21-6.67Q87.70-5.27 88.62-4.27L88.62-4.27L88.62-4.27Q89.55-3.27 90.82-2.71L90.82-2.71L90.82-2.71Q92.09-2.15 93.65-2.15L93.65-2.15L93.65-2.15Q96.44-2.15 98.27-3.44L98.27-3.44L98.27-3.44Q100.10-4.74 101.07-6.74L101.07-6.74L101.07-6.74Q98.19-8.25 96.34-11.04L96.34-11.04L96.34-11.04Q94.48-13.82 94.48-17.29L94.48-17.29L94.48-17.29Q94.48-20.07 95.83-21.83L95.83-21.83L95.83-21.83Q97.17-23.58 99.37-23.58L99.37-23.58L99.37-23.58Q100.68-23.58 101.86-22.95L101.86-22.95L101.86-22.95Q103.03-22.31 103.93-20.95L103.93-20.95L103.93-20.95Q104.83-19.58 105.37-17.43L105.37-17.43L105.37-17.43Q105.91-15.28 105.91-12.30L105.91-12.30L105.91-12.30Q105.91-10.74 105.52-9.03L105.52-9.03L105.52-9.03Q105.81-8.98 106.10-8.98L106.10-8.98L106.10-8.98Q106.40-8.98 106.74-8.98L106.74-8.98L106.74-8.98Q108.40-8.98 109.72-9.38L109.72-9.38L109.72-9.38Q111.04-9.77 112.11-10.55L112.11-10.55L112.11-10.55Q113.18-11.33 114.04-12.55L114.04-12.55L114.04-12.55Q114.89-13.77 115.67-15.38L115.67-15.38L115.67-15.38Q115.82-15.67 116.31-15.94L116.31-15.94L116.31-15.94Q116.80-16.21 117.29-16.21L117.29-16.21L117.29-16.21Q117.92-16.21 118.48-15.70L118.48-15.70L118.48-15.70Q119.04-15.19 119.04-14.36L119.04-14.36L119.04-14.36Q119.04-13.96 118.85-13.50L118.85-13.50L118.85-13.50Q118.65-13.04 118.46-12.65L118.46-12.65L118.46-12.65Q117.63-11.18 116.53-9.84L116.53-9.84L116.53-9.84Q115.43-8.50 113.94-7.50L113.94-7.50L113.94-7.50Q112.45-6.49 110.60-5.91L110.60-5.91L110.60-5.91Q108.74-5.32 106.45-5.37ZM98.10-17.68L98.10-17.68L98.10-17.68Q98.10-16.75 98.34-15.72L98.34-15.72L98.34-15.72Q98.58-14.70 99.10-13.70L99.10-13.70L99.10-13.70Q99.61-12.70 100.37-11.79L100.37-11.79L100.37-11.79Q101.12-10.89 102.15-10.25L102.15-10.25L102.15-10.25Q102.29-11.28 102.29-12.26L102.29-12.26L102.29-12.26Q102.29-13.57 102.10-14.94L102.10-14.94L102.10-14.94Q101.90-16.31 101.54-17.46L101.54-17.46L101.54-17.46Q101.17-18.60 100.63-19.31L100.63-19.31L100.63-19.31Q100.10-20.02 99.37-20.02L99.37-20.02L99.37-20.02Q99.07-20.02 98.58-19.58L98.58-19.58L98.58-19.58Q98.10-19.14 98.10-17.68ZM131.74-5.47L131.74-5.47L131.74-5.47Q130.03-2.69 127.76-1.07L127.76-1.07L127.76-1.07Q125.49 0.54 123.19 0.54L123.19 0.54L123.19 0.54Q121.34 0.54 119.87-0.15L119.87-0.15L119.87-0.15Q118.41-0.83 117.33-2.08L117.33-2.08L117.33-2.08Q116.26-3.32 115.70-5.08L115.70-5.08L115.70-5.08Q115.14-6.84 115.14-9.03L115.14-9.03L115.14-9.03Q115.14-12.45 115.80-15.09L115.80-15.09L115.80-15.09Q116.46-17.72 117.24-19.51L117.24-19.51L117.24-19.51Q118.02-21.29 118.70-22.22L118.70-22.22L118.70-22.22Q119.38-23.14 119.38-23.14L119.38-23.14L119.38-23.14Q119.63-23.44 120.00-23.58L120.00-23.58L120.00-23.58Q120.36-23.73 120.75-23.73L120.75-23.73L120.75-23.73Q121.53-23.73 122.05-23.17L122.05-23.17L122.05-23.17Q122.56-22.61 122.56-21.88L122.56-21.88L122.56-21.88Q122.56-21.58 122.44-21.29L122.44-21.29L122.44-21.29Q122.31-21.00 122.17-20.70L122.17-20.70L122.17-20.70Q121.92-20.26 121.39-19.36L121.39-19.36L121.39-19.36Q120.85-18.46 120.26-16.99L120.26-16.99L120.26-16.99Q119.68-15.53 119.24-13.55L119.24-13.55L119.24-13.55Q118.80-11.57 118.80-9.03L118.80-9.03L118.80-9.03Q118.80-6.15 119.95-4.66L119.95-4.66L119.95-4.66Q121.09-3.17 123.19-3.17L123.19-3.17L123.19-3.17Q124.07-3.17 125.22-3.74L125.22-3.74L125.22-3.74Q126.37-4.30 127.47-5.47L127.47-5.47L127.47-5.47Q128.56-6.64 129.39-8.45L129.39-8.45L129.39-8.45Q130.22-10.25 130.47-12.70L130.47-12.70L131.20-21.09L131.20-21.09Q131.30-21.83 131.84-22.31L131.84-22.31L131.84-22.31Q132.37-22.80 133.11-22.80L133.11-22.80L133.11-22.80Q133.94-22.80 134.42-22.19L134.42-22.19L134.42-22.19Q134.91-21.58 134.91-20.80L134.91-20.80L134.28-12.70L134.28-12.70Q134.18-11.67 134.35-10.01L134.35-10.01L134.35-10.01Q134.52-8.35 135.06-6.74L135.06-6.74L135.06-6.74Q135.60-5.13 136.67-3.98L136.67-3.98L136.67-3.98Q137.74-2.83 139.50-2.83L139.50-2.83L139.50-2.83Q140.77-2.83 141.99-3.49L141.99-3.49L141.99-3.49Q143.21-4.15 144.34-5.22L144.34-5.22L144.34-5.22Q145.46-6.30 146.41-7.64L146.41-7.64L146.41-7.64Q147.36-8.98 148.17-10.35L148.17-10.35L148.17-10.35Q148.97-11.72 149.56-12.96L149.56-12.96L149.56-12.96Q150.15-14.21 150.54-15.09L150.54-15.09L150.54-15.09Q150.78-15.63 151.22-15.92L151.22-15.92L151.22-15.92Q151.66-16.21 152.20-16.21L152.20-16.21L152.20-16.21Q153.08-16.21 153.56-15.63L153.56-15.63L153.56-15.63Q154.05-15.04 154.05-14.36L154.05-14.36L154.05-14.36Q154.05-13.96 153.91-13.62L153.91-13.62L153.91-13.62Q153.71-13.23 153.15-11.99L153.15-11.99L153.15-11.99Q152.59-10.74 151.68-9.16L151.68-9.16L151.68-9.16Q150.78-7.57 149.51-5.81L149.51-5.81L149.51-5.81Q148.24-4.05 146.68-2.56L146.68-2.56L146.68-2.56Q145.12-1.07 143.29-0.12L143.29-0.12L143.29-0.12Q141.46 0.83 139.36 0.83L139.36 0.83L139.36 0.83Q136.47 0.83 134.57-0.81L134.57-0.81L134.57-0.81Q132.67-2.44 131.74-5.47ZM161.38-4.39L161.38-4.39L161.38-4.39Q162.16-6.01 163.18-7.93L163.18-7.93L163.18-7.93Q164.21-9.86 165.38-11.84L165.38-11.84L165.38-11.84Q166.55-13.82 167.85-15.77L167.85-15.77L167.85-15.77Q169.14-17.72 170.56-19.48L170.56-19.48L170.56-19.48Q171.97-21.19 173.41-21.95L173.41-21.95L173.41-21.95Q174.85-22.71 176.12-22.71L176.12-22.71L176.12-22.71Q178.66-22.71 179.88-20.85L179.88-20.85L179.88-20.85Q181.10-18.99 181.10-16.26L181.10-16.26L181.10-16.26Q181.10-15.63 181.03-14.72L181.03-14.72L181.03-14.72Q180.96-13.82 180.88-12.79L180.88-12.79L180.88-12.79Q180.81-11.77 180.74-10.72L180.74-10.72L180.74-10.72Q180.66-9.67 180.66-8.74L180.66-8.74L180.66-8.74Q180.66-7.57 180.79-6.49L180.79-6.49L180.79-6.49Q180.91-5.42 181.25-4.61L181.25-4.61L181.25-4.61Q181.59-3.81 182.23-3.34L182.23-3.34L182.23-3.34Q182.86-2.88 183.89-2.88L183.89-2.88L183.89-2.88Q185.74-2.88 187.50-4.32L187.50-4.32L187.50-4.32Q189.26-5.76 190.75-7.74L190.75-7.74L190.75-7.74Q192.24-9.72 193.33-11.77L193.33-11.77L193.33-11.77Q194.43-13.82 194.97-15.09L194.97-15.09L194.97-15.09Q195.21-15.63 195.68-15.92L195.68-15.92L195.68-15.92Q196.14-16.21 196.68-16.21L196.68-16.21L196.68-16.21Q197.51-16.21 198.02-15.60L198.02-15.60L198.02-15.60Q198.54-14.99 198.54-14.31L198.54-14.31L198.54-14.31Q198.54-13.96 198.39-13.62L198.39-13.62L198.39-13.62Q198.19-13.23 197.61-12.01L197.61-12.01L197.61-12.01Q197.02-10.79 196.07-9.20L196.07-9.20L196.07-9.20Q195.12-7.62 193.85-5.83L193.85-5.83L193.85-5.83Q192.58-4.05 191.04-2.59L191.04-2.59L191.04-2.59Q189.50-1.12 187.72-0.15L187.72-0.15L187.72-0.15Q185.94 0.83 183.98 0.83L183.98 0.83L183.98 0.83Q181.79 0.83 180.42-0.02L180.42-0.02L180.42-0.02Q179.05-0.88 178.27-2.27L178.27-2.27L178.27-2.27Q177.49-3.66 177.22-5.35L177.22-5.35L177.22-5.35Q176.95-7.03 176.95-8.74L176.95-8.74L176.95-8.74Q176.95-9.47 177.03-10.40L177.03-10.40L177.03-10.40Q177.10-11.33 177.22-12.35L177.22-12.35L177.22-12.35Q177.34-13.38 177.42-14.40L177.42-14.40L177.42-14.40Q177.49-15.43 177.49-16.36L177.49-16.36L177.49-16.36Q177.49-17.92 177.00-18.48L177.00-18.48L177.00-18.48Q176.51-19.04 176.12-19.04L176.12-19.04L176.12-19.04Q175.34-19.04 174.34-18.14L174.34-18.14L174.34-18.14Q173.34-17.24 172.24-15.77L172.24-15.77L172.24-15.77Q171.14-14.31 170.00-12.48L170.00-12.48L170.00-12.48Q168.85-10.64 167.85-8.84L167.85-8.84L167.85-8.84Q166.85-7.03 165.99-5.40L165.99-5.40L165.99-5.40Q165.14-3.76 164.65-2.69L164.65-2.69L164.65-2.69Q163.67-0.63 162.70 0.07L162.70 0.07L162.70 0.07Q161.72 0.78 160.69 0.78L160.69 0.78L160.69 0.78Q159.28 0.78 158.42-0.07L158.42-0.07L158.42-0.07Q157.57-0.93 157.57-2.49L157.57-2.49L157.57-2.49Q157.57-2.83 157.67-3.83L157.67-3.83L157.67-3.83Q157.76-4.83 157.91-6.23L157.91-6.23L157.91-6.23Q158.06-7.62 158.20-9.23L158.20-9.23L158.20-9.23Q158.35-10.84 158.50-12.43L158.50-12.43L158.50-12.43Q158.64-14.01 158.74-15.38L158.74-15.38L158.74-15.38Q158.84-16.75 158.84-17.68L158.84-17.68L158.84-17.68Q158.84-18.90 158.74-20.02L158.74-20.02L158.74-20.02Q158.64-21.14 158.35-21.39L158.35-21.39L158.35-21.39Q157.91-21.24 156.79-19.56L156.79-19.56L156.79-19.56Q155.66-17.87 153.91-13.62L153.91-13.62L153.91-13.62Q153.66-13.09 153.17-12.79L153.17-12.79L153.17-12.79Q152.69-12.50 152.15-12.50L152.15-12.50L152.15-12.50Q151.32-12.50 150.83-13.06L150.83-13.06L150.83-13.06Q150.34-13.62 150.34-14.36L150.34-14.36L150.34-14.36Q150.34-14.70 150.49-15.09L150.49-15.09L150.49-15.09Q152.69-20.31 154.61-22.78L154.61-22.78L154.61-22.78Q156.54-25.24 158.45-25.24L158.45-25.24L158.45-25.24Q159.57-25.24 160.35-24.68L160.35-24.68L160.35-24.68Q161.13-24.12 161.60-23.19L161.60-23.19L161.60-23.19Q162.06-22.27 162.28-21.14L162.28-21.14L162.28-21.14Q162.50-20.02 162.50-18.85L162.50-18.85L162.50-18.85Q162.50-17.97 162.38-16.11L162.38-16.11L162.38-16.11Q162.26-14.26 162.06-12.13L162.06-12.13L162.06-12.13Q161.87-10.01 161.69-7.91L161.69-7.91L161.69-7.91Q161.52-5.81 161.38-4.39ZM213.96-14.21L213.96-14.21L213.96-14.21Q216.36-2.93 220.90-2.93L220.90-2.93L220.90-2.93Q222.66-2.93 224.27-4.22L224.27-4.22L224.27-4.22Q225.88-5.52 227.27-7.40L227.27-7.40L227.27-7.40Q228.66-9.28 229.74-11.38L229.74-11.38L229.74-11.38Q230.81-13.48 231.49-15.04L231.49-15.04L231.49-15.04Q231.98-16.21 233.20-16.21L233.20-16.21L233.20-16.21Q233.98-16.21 234.52-15.63L234.52-15.63L234.52-15.63Q235.06-15.04 235.06-14.36L235.06-14.36L235.06-14.36Q235.06-13.96 234.91-13.67L234.91-13.67L234.91-13.67Q234.57-12.84 233.91-11.45L233.91-11.45L233.91-11.45Q233.25-10.06 232.30-8.47L232.30-8.47L232.30-8.47Q231.35-6.88 230.18-5.22L230.18-5.22L230.18-5.22Q229.00-3.56 227.59-2.25L227.59-2.25L227.59-2.25Q226.17-0.93 224.58-0.07L224.58-0.07L224.58-0.07Q223.00 0.78 221.24 0.78L221.24 0.78L221.24 0.78Q217.97 0.78 215.63-1.49L215.63-1.49L215.63-1.49Q213.28-3.76 211.57-8.98L211.57-8.98L211.57-8.98Q209.23-4.00 206.84-1.76L206.84-1.76L206.84-1.76Q204.44 0.49 201.66 0.49L201.66 0.49L201.66 0.49Q200.20 0.49 198.83 0.02L198.83 0.02L198.83 0.02Q197.46-0.44 196.44-1.51L196.44-1.51L196.44-1.51Q195.41-2.59 194.78-4.27L194.78-4.27L194.78-4.27Q194.14-5.96 194.14-8.40L194.14-8.40L194.14-8.40Q194.14-11.77 195.31-14.60L195.31-14.60L195.31-14.60Q196.48-17.43 198.34-19.46L198.34-19.46L198.34-19.46Q200.20-21.48 202.47-22.61L202.47-22.61L202.47-22.61Q204.74-23.73 206.98-23.73L206.98-23.73L206.98-23.73Q207.71-23.73 208.25-23.22L208.25-23.22L208.25-23.22Q208.79-22.71 208.79-21.92L208.79-21.92L208.79-21.92Q208.79-21.24 208.35-20.70L208.35-20.70L208.35-20.70Q207.91-20.17 207.18-20.07L207.18-20.07L207.18-20.07Q205.71-19.87 204.05-19.14L204.05-19.14L204.05-19.14Q202.39-18.41 201.00-17.02L201.00-17.02L201.00-17.02Q199.61-15.63 198.71-13.48L198.71-13.48L198.71-13.48Q197.80-11.33 197.80-8.35L197.80-8.35L197.80-8.35Q197.80-5.91 198.80-4.54L198.80-4.54L198.80-4.54Q199.80-3.17 201.71-3.17L201.71-3.17L201.71-3.17Q202.49-3.17 203.37-3.59L203.37-3.59L203.37-3.59Q204.25-4.00 205.25-5.22L205.25-5.22L205.25-5.22Q206.25-6.45 207.45-8.69L207.45-8.69L207.45-8.69Q208.64-10.94 210.11-14.60L210.11-14.60L210.11-14.60Q209.28-18.90 208.59-24.51L208.59-24.51L208.59-24.51Q207.91-30.13 207.91-37.06L207.91-37.06L207.91-37.06Q207.91-40.09 208.11-43.38L208.11-43.38L208.11-43.38Q208.30-46.68 208.74-49.83L208.74-49.83L208.74-49.83Q209.18-52.98 209.91-55.81L209.91-55.81L209.91-55.81Q210.64-58.64 211.69-60.79L211.69-60.79L211.69-60.79Q212.74-62.94 214.16-64.18L214.16-64.18L214.16-64.18Q215.58-65.43 217.38-65.43L217.38-65.43L217.38-65.43Q218.99-65.43 220.12-64.55L220.12-64.55L220.12-64.55Q221.24-63.67 221.95-62.11L221.95-62.11L221.95-62.11Q222.66-60.55 223.00-58.35L223.00-58.35L223.00-58.35Q223.34-56.15 223.34-53.52L223.34-53.52L223.34-53.52Q223.34-47.85 222.36-42.19L222.36-42.19L222.36-42.19Q221.39-36.52 219.95-31.35L219.95-31.35L219.95-31.35Q218.51-26.17 216.89-21.78L216.89-21.78L216.89-21.78Q215.28-17.38 213.96-14.21ZM219.68-53.56L219.68-53.56L219.68-53.56Q219.68-54.79 219.60-56.20L219.60-56.20L219.60-56.20Q219.53-57.62 219.26-58.86L219.26-58.86L219.26-58.86Q218.99-60.11 218.55-60.94L218.55-60.94L218.55-60.94Q218.12-61.77 217.38-61.77L217.38-61.77L217.38-61.77Q216.16-61.77 215.11-59.62L215.11-59.62L215.11-59.62Q214.06-57.47 213.28-53.98L213.28-53.98L213.28-53.98Q212.50-50.49 212.04-46.07L212.04-46.07L212.04-46.07Q211.57-41.65 211.57-37.16L211.57-37.16L211.57-37.16Q211.57-32.86 211.91-28.56L211.91-28.56L211.91-28.56Q212.26-24.27 212.70-20.90L212.70-20.90L212.70-20.90Q214.11-24.66 215.38-28.64L215.38-28.64L215.38-28.64Q216.65-32.62 217.60-36.77L217.60-36.77L217.60-36.77Q218.55-40.92 219.12-45.14L219.12-45.14L219.12-45.14Q219.68-49.37 219.68-53.56ZM236.96-18.07L236.96-18.07L236.96-18.07Q236.67-17.29 236.25-16.31L236.25-16.31L236.25-16.31Q235.84-15.33 235.30-14.26L235.30-14.26L235.30-14.26Q234.86-13.43 234.40-12.96L234.40-12.96L234.40-12.96Q233.94-12.50 233.20-12.50L233.20-12.50L233.20-12.50Q232.37-12.50 231.88-13.01L231.88-13.01L231.88-13.01Q231.40-13.53 231.40-14.21L231.40-14.21L231.40-14.21Q231.40-14.45 231.45-14.62L231.45-14.62L231.45-14.62Q231.49-14.79 231.69-15.19L231.69-15.19L231.69-15.19Q232.96-17.63 233.57-19.46L233.57-19.46L233.57-19.46Q234.18-21.29 234.57-23.29L234.57-23.29L234.57-23.29Q234.23-24.41 234.08-25.20L234.08-25.20L234.08-25.20Q233.94-25.98 233.94-26.81L233.94-26.81L233.94-26.81Q233.94-28.42 234.62-29.42L234.62-29.42L234.62-29.42Q235.30-30.42 236.52-30.42L236.52-30.42L236.52-30.42Q237.65-30.42 238.31-29.44L238.31-29.44L238.31-29.44Q238.96-28.47 238.96-27.05L238.96-27.05L238.96-27.05Q238.96-26.27 238.82-25.49L238.82-25.49L238.82-25.49Q238.67-24.71 238.43-23.54L238.43-23.54L238.43-23.54Q239.55-20.75 240.67-18.60L240.67-18.60L240.67-18.60Q241.80-16.46 242.68-14.67L242.68-14.67L242.68-14.67Q243.55-12.89 244.12-11.33L244.12-11.33L244.12-11.33Q244.68-9.77 244.68-8.20L244.68-8.20L244.68-8.20Q244.68-6.15 243.85-4.30L243.85-4.30L243.85-4.30Q243.02-2.44 241.11-1.17L241.11-1.17L241.11-1.17Q241.36-1.12 241.60-1.12L241.60-1.12L241.60-1.12Q241.85-1.12 242.09-1.12L242.09-1.12L242.09-1.12Q244.87-1.12 247.22-2.39L247.22-2.39L247.22-2.39Q249.56-3.66 251.44-5.69L251.44-5.69L251.44-5.69Q253.32-7.71 254.79-10.18L254.79-10.18L254.79-10.18Q256.25-12.65 257.32-15.09L257.32-15.09L257.32-15.09Q257.81-16.21 258.69-16.21L258.69-16.21L258.69-16.21Q259.52-16.21 259.99-15.63L259.99-15.63L259.99-15.63Q260.45-15.04 260.45-14.36L260.45-14.36L260.45-14.36Q260.45-13.96 260.30-13.62L260.30-13.62L260.30-13.62Q259.77-12.30 258.91-10.62L258.91-10.62L258.91-10.62Q258.06-8.94 256.86-7.15L256.86-7.15L256.86-7.15Q255.66-5.37 254.10-3.66L254.10-3.66L254.10-3.66Q252.54-1.95 250.61-0.61L250.61-0.61L250.61-0.61Q248.68 0.73 246.39 1.54L246.39 1.54L246.39 1.54Q244.09 2.34 241.36 2.34L241.36 2.34L241.36 2.34Q238.09 2.34 235.28 1.20L235.28 1.20L235.28 1.20Q232.47 0.05 230.71-2.59L230.71-2.59L230.71-2.59Q230.42-3.03 230.42-3.52L230.42-3.52L230.42-3.52Q230.42-4.25 230.98-4.81L230.98-4.81L230.98-4.81Q231.54-5.37 232.28-5.37L232.28-5.37L232.28-5.37Q233.06-5.37 233.59-4.83L233.59-4.83L233.59-4.83Q233.64-4.74 233.94-4.52L233.94-4.52L233.94-4.52Q234.23-4.30 234.64-4.03L234.64-4.03L234.64-4.03Q235.06-3.76 235.62-3.56L235.62-3.56L235.62-3.56Q236.18-3.37 236.77-3.37L236.77-3.37L236.77-3.37Q237.94-3.37 238.75-3.86L238.75-3.86L238.75-3.86Q239.55-4.35 240.04-5.05L240.04-5.05L240.04-5.05Q240.53-5.76 240.75-6.57L240.75-6.57L240.75-6.57Q240.97-7.37 240.97-7.96L240.97-7.96L240.97-7.96Q240.97-9.18 240.58-10.40L240.58-10.40L240.58-10.40Q240.19-11.62 239.58-12.84L239.58-12.84L239.58-12.84Q238.96-14.06 238.26-15.36L238.26-15.36L238.26-15.36Q237.55-16.65 236.96-18.07ZM288.87-13.53L288.87-13.53L288.87-13.53Q288.57-12.99 287.87-11.57L287.87-11.57L287.87-11.57Q287.16-10.16 285.96-8.37L285.96-8.37L285.96-8.37Q284.77-6.59 283.11-4.69L283.11-4.69L283.11-4.69Q281.45-2.78 279.30-1.20L279.30-1.20L279.30-1.20Q277.15 0.39 274.49 1.42L274.49 1.42L274.49 1.42Q271.83 2.44 268.70 2.44L268.70 2.44L268.70 2.44Q265.92 2.44 263.77 1.44L263.77 1.44L263.77 1.44Q261.62 0.44 260.11-1.39L260.11-1.39L260.11-1.39Q258.59-3.22 257.81-5.71L257.81-5.71L257.81-5.71Q257.03-8.20 257.03-11.23L257.03-11.23L257.03-11.23Q257.03-14.16 257.86-16.72L257.86-16.72L257.86-16.72Q258.69-19.29 260.13-21.19L260.13-21.19L260.13-21.19Q261.57-23.10 263.48-24.19L263.48-24.19L263.48-24.19Q265.38-25.29 267.53-25.29L267.53-25.29L267.53-25.29Q269.14-25.29 270.46-24.73L270.46-24.73L270.46-24.73Q271.78-24.17 272.68-23.24L272.68-23.24L272.68-23.24Q273.58-22.31 274.10-21.19L274.10-21.19L274.10-21.19Q274.61-20.07 274.61-18.95L274.61-18.95L274.61-18.95Q274.61-17.87 274.34-16.94L274.34-16.94L274.34-16.94Q274.07-16.02 273.66-15.31L273.66-15.31L273.66-15.31Q273.24-14.60 272.71-14.18L272.71-14.18L272.71-14.18Q272.17-13.77 271.63-13.77L271.63-13.77L271.63-13.77Q270.80-13.77 270.29-14.31L270.29-14.31L270.29-14.31Q269.78-14.84 269.78-15.63L269.78-15.63L269.78-15.63Q269.78-16.02 269.95-16.31L269.95-16.31L269.95-16.31Q270.12-16.60 270.34-16.92L270.34-16.92L270.34-16.92Q270.56-17.24 270.73-17.70L270.73-17.70L270.73-17.70Q270.90-18.16 270.90-18.90L270.90-18.90L270.90-18.90Q270.90-19.92 269.95-20.75L269.95-20.75L269.95-20.75Q268.99-21.58 267.53-21.58L267.53-21.58L267.53-21.58Q266.16-21.58 264.92-20.75L264.92-20.75L264.92-20.75Q263.67-19.92 262.74-18.53L262.74-18.53L262.74-18.53Q261.82-17.14 261.25-15.26L261.25-15.26L261.25-15.26Q260.69-13.38 260.69-11.28L260.69-11.28L260.69-11.28Q260.69-9.28 261.18-7.47L261.18-7.47L261.18-7.47Q261.67-5.66 262.65-4.27L262.65-4.27L262.65-4.27Q263.62-2.88 265.11-2.05L265.11-2.05L265.11-2.05Q266.60-1.22 268.65-1.22L268.65-1.22L268.65-1.22Q271.29-1.22 273.54-2.17L273.54-2.17L273.54-2.17Q275.78-3.13 277.64-4.59L277.64-4.59L277.64-4.59Q279.49-6.05 280.91-7.79L280.91-7.79L280.91-7.79Q282.32-9.52 283.33-11.06L283.33-11.06L283.33-11.06Q284.33-12.60 284.89-13.75L284.89-13.75L284.89-13.75Q285.45-14.89 285.55-15.19L285.55-15.19L285.55-15.19Q285.74-15.67 286.21-15.94L286.21-15.94L286.21-15.94Q286.67-16.21 287.21-16.21L287.21-16.21L287.21-16.21Q288.04-16.21 288.55-15.63L288.55-15.63L288.55-15.63Q289.06-15.04 289.06-14.31L289.06-14.31L289.06-14.31Q289.06-14.01 288.87-13.53ZM323.29-13.62L323.29-13.62L323.29-13.62Q323.10-13.23 322.49-11.99L322.49-11.99L322.49-11.99Q321.88-10.74 320.92-9.13L320.92-9.13L320.92-9.13Q319.97-7.52 318.70-5.76L318.70-5.76L318.70-5.76Q317.43-4.00 315.87-2.54L315.87-2.54L315.87-2.54Q314.31-1.07 312.50-0.12L312.50-0.12L312.50-0.12Q310.69 0.83 308.69 0.83L308.69 0.83L308.69 0.83Q305.86 0.83 303.93-0.98L303.93-0.98L303.93-0.98Q302.00-2.78 301.12-5.52L301.12-5.52L301.12-5.52Q299.46-2.73 297.17-1.10L297.17-1.10L297.17-1.10Q294.87 0.54 292.58 0.54L292.58 0.54L292.58 0.54Q290.77 0.54 289.31-0.12L289.31-0.12L289.31-0.12Q287.84-0.78 286.82-1.98L286.82-1.98L286.82-1.98Q285.79-3.17 285.23-4.79L285.23-4.79L285.23-4.79Q284.67-6.40 284.67-8.30L284.67-8.30L284.67-8.30Q284.67-12.11 285.96-15.01L285.96-15.01L285.96-15.01Q287.26-17.92 289.26-19.87L289.26-19.87L289.26-19.87Q291.26-21.83 293.68-22.80L293.68-22.80L293.68-22.80Q296.09-23.78 298.34-23.78L298.34-23.78L298.34-23.78Q299.85-23.78 301.12-23.36L301.12-23.36L301.12-23.36Q302.39-22.95 303.30-22.46L303.30-22.46L303.30-22.46Q304.20-21.97 304.69-21.56L304.69-21.56L304.69-21.56Q305.18-21.14 305.22-21.09L305.22-21.09L305.22-21.09Q305.76-20.46 305.76-19.78L305.76-19.78L305.76-19.78Q305.76-19.04 305.22-18.48L305.22-18.48L305.22-18.48Q304.69-17.92 303.96-17.92L303.96-17.92L303.96-17.92Q303.17-17.92 302.64-18.46L302.64-18.46L302.64-18.46Q302.54-18.55 302.20-18.82L302.20-18.82L302.20-18.82Q301.86-19.09 301.27-19.38L301.27-19.38L301.27-19.38Q300.68-19.68 299.88-19.90L299.88-19.90L299.88-19.90Q299.07-20.12 298.05-20.12L298.05-20.12L298.05-20.12Q296.53-20.12 294.82-19.43L294.82-19.43L294.82-19.43Q293.12-18.75 291.70-17.31L291.70-17.31L291.70-17.31Q290.28-15.87 289.33-13.70L289.33-13.70L289.33-13.70Q288.38-11.52 288.38-8.54L288.38-8.54L288.38-8.54Q288.38-7.62 288.57-6.67L288.57-6.67L288.57-6.67Q288.77-5.71 289.26-4.93L289.26-4.93L289.26-4.93Q289.75-4.15 290.58-3.66L290.58-3.66L290.58-3.66Q291.41-3.17 292.63-3.17L292.63-3.17L292.63-3.17Q293.51-3.17 294.65-3.76L294.65-3.76L294.65-3.76Q295.80-4.35 296.85-5.57L296.85-5.57L296.85-5.57Q297.90-6.79 298.75-8.64L298.75-8.64L298.75-8.64Q299.61-10.50 299.95-13.04L299.95-13.04L299.95-13.04Q300.05-13.72 300.59-14.18L300.59-14.18L300.59-14.18Q301.12-14.65 301.86-14.65L301.86-14.65L301.86-14.65Q302.54-14.65 303.05-14.11L303.05-14.11L303.05-14.11Q303.56-13.57 303.61-12.89L303.61-12.89L303.61-12.89Q303.66-11.96 303.81-10.28L303.81-10.28L303.81-10.28Q303.96-8.59 304.47-6.93L304.47-6.93L304.47-6.93Q304.98-5.27 306.01-4.05L306.01-4.05L306.01-4.05Q307.03-2.83 308.84-2.83L308.84-2.83L308.84-2.83Q310.01-2.83 311.16-3.47L311.16-3.47L311.16-3.47Q312.30-4.10 313.40-5.15L313.40-5.15L313.40-5.15Q314.50-6.20 315.50-7.54L315.50-7.54L315.50-7.54Q316.50-8.89 317.33-10.25L317.33-10.25L317.33-10.25Q318.16-11.62 318.80-12.89L318.80-12.89L318.80-12.89Q319.43-14.16 319.87-15.09L319.87-15.09L319.87-15.09Q320.12-15.63 320.58-15.92L320.58-15.92L320.58-15.92Q321.04-16.21 321.58-16.21L321.58-16.21L321.58-16.21Q322.41-16.21 322.92-15.60L322.92-15.60L322.92-15.60Q323.44-14.99 323.44-14.31L323.44-14.31L323.44-14.31Q323.44-13.96 323.29-13.62ZM344.97-13.62L344.97-13.62L344.97-13.62Q344.97-9.13 343.36-5.96L343.36-5.96L343.36-5.96Q341.75-2.78 339.40-1.12L339.40-1.12L339.60-1.12L339.60-1.12Q342.48-1.12 344.85-2.42L344.85-2.42L344.85-2.42Q347.22-3.71 349.12-5.74L349.12-5.74L349.12-5.74Q351.03-7.76 352.54-10.25L352.54-10.25L352.54-10.25Q354.05-12.74 355.22-15.09L355.22-15.09L355.22-15.09Q355.47-15.63 355.93-15.92L355.93-15.92L355.93-15.92Q356.40-16.21 356.93-16.21L356.93-16.21L356.93-16.21Q357.76-16.21 358.25-15.63L358.25-15.63L358.25-15.63Q358.74-15.04 358.74-14.36L358.74-14.36L358.74-14.36Q358.74-13.96 358.59-13.62L358.59-13.62L358.59-13.62Q357.32-10.79 355.57-7.93L355.57-7.93L355.57-7.93Q353.81-5.08 351.46-2.78L351.46-2.78L351.46-2.78Q349.12-0.49 346.19 0.95L346.19 0.95L346.19 0.95Q343.26 2.39 339.70 2.39L339.70 2.39L339.70 2.39Q337.11 2.39 334.67 1.59L334.67 1.59L334.67 1.59Q332.23 0.78 330.37-0.93L330.37-0.93L330.37-0.93Q329.69-1.46 329.20-2.08L329.20-2.08L329.20-2.08Q328.71-2.69 328.42-3.22L328.42-3.22L328.42-3.22Q328.32-3.32 328.32-3.42L328.32-3.42L328.32-3.42Q328.03-3.86 328.03-4.35L328.03-4.35L328.03-4.35Q328.03-4.98 328.47-5.52L328.47-5.52L328.47-5.52Q328.52-5.62 328.56-5.64L328.56-5.64L328.56-5.64Q328.61-5.66 328.66-5.71L328.66-5.71L328.66-5.71Q329.15-6.15 329.74-6.20L329.74-6.20L329.88-6.20L329.88-6.20Q330.13-6.20 330.22-6.15L330.22-6.15L330.22-6.15Q330.27-6.15 330.30-6.13L330.30-6.13L330.30-6.13Q330.32-6.10 330.37-6.10L330.37-6.10L330.37-6.10Q330.52-6.10 330.71-6.01L330.71-6.01L330.71-6.01Q330.76-5.96 330.81-5.96L330.81-5.96L330.81-5.96Q331.25-5.66 331.54-5.22L331.54-5.22L331.54-5.22Q331.88-4.64 332.32-4.15L332.32-4.15L332.32-4.15Q332.71-3.76 333.25-3.44L333.25-3.44L333.25-3.44Q333.79-3.13 334.47-3.13L334.47-3.13L334.47-3.13Q335.69-3.13 336.91-3.86L336.91-3.86L336.91-3.86Q338.13-4.59 339.11-5.96L339.11-5.96L339.11-5.96Q340.09-7.32 340.70-9.28L340.70-9.28L340.70-9.28Q341.31-11.23 341.31-13.62L341.31-13.62L341.31-13.62Q341.31-15.38 340.94-16.63L340.94-16.63L340.94-16.63Q340.58-17.87 340.01-18.65L340.01-18.65L340.01-18.65Q339.45-19.43 338.82-19.80L338.82-19.80L338.82-19.80Q338.18-20.17 337.60-20.17L337.60-20.17L337.60-20.17Q336.28-20.17 334.94-18.80L334.94-18.80L334.94-18.80Q333.59-17.43 332.28-15.33L332.28-15.33L332.28-15.33Q330.96-13.23 329.66-10.69L329.66-10.69L329.66-10.69Q328.37-8.15 327.05-5.76L327.05-5.76L327.05-5.76Q326.95 2.15 326.78 9.33L326.78 9.33L326.78 9.33Q326.61 16.50 326.20 22.66L326.20 22.66L326.20 22.66Q325.78 28.81 325.05 33.79L325.05 33.79L325.05 33.79Q324.32 38.77 323.05 42.31L323.05 42.31L323.05 42.31Q321.78 45.85 319.92 47.75L319.92 47.75L319.92 47.75Q318.07 49.66 315.38 49.66L315.38 49.66L315.38 49.66Q314.55 49.66 313.48 49.32L313.48 49.32L313.48 49.32Q312.40 48.97 311.47 47.92L311.47 47.92L311.47 47.92Q310.55 46.88 309.91 44.92L309.91 44.92L309.91 44.92Q309.28 42.97 309.28 39.70L309.28 39.70L309.28 39.70Q309.28 35.55 310.30 30.08L310.30 30.08L310.30 30.08Q311.33 24.61 313.21 18.48L313.21 18.48L313.21 18.48Q315.09 12.35 317.68 5.91L317.68 5.91L317.68 5.91Q320.26-0.54 323.39-6.64L323.39-6.64L323.39-6.64Q323.39-8.35 323.41-10.01L323.41-10.01L323.41-10.01Q323.44-11.67 323.44-13.23L323.44-13.23L323.44-13.23Q322.80-12.50 321.92-12.50L321.92-12.50L321.92-12.50Q321.09-12.50 320.61-13.09L320.61-13.09L320.61-13.09Q320.12-13.67 320.12-14.36L320.12-14.36L320.12-14.36Q320.12-14.70 320.26-15.09L320.26-15.09L320.26-15.09Q321.44-17.77 322.07-20.19L322.07-20.19L322.07-20.19Q322.71-22.61 323.02-24.44L323.02-24.44L323.02-24.44Q323.34-26.27 323.39-27.34L323.39-27.34L323.39-27.34Q323.44-28.42 323.44-28.47L323.44-28.47L323.44-28.47Q323.44-29.20 323.97-29.74L323.97-29.74L323.97-29.74Q324.51-30.27 325.29-30.27L325.29-30.27L325.29-30.27Q326.03-30.27 326.56-29.76L326.56-29.76L326.56-29.76Q327.10-29.25 327.10-28.47L327.10-28.47L327.10-13.48L327.10-13.48Q328.22-15.38 329.35-17.24L329.35-17.24L329.35-17.24Q330.47-19.09 331.71-20.56L331.71-20.56L331.71-20.56Q332.96-22.02 334.40-22.92L334.40-22.92L334.40-22.92Q335.84-23.83 337.60-23.83L337.60-23.83L337.60-23.83Q339.26-23.83 340.63-23.05L340.63-23.05L340.63-23.05Q341.99-22.27 342.97-20.90L342.97-20.90L342.97-20.90Q343.95-19.53 344.46-17.65L344.46-17.65L344.46-17.65Q344.97-15.77 344.97-13.62ZM323.29 2.05L323.29 2.05L323.29 2.05Q320.90 7.42 318.97 12.84L318.97 12.84L318.97 12.84Q317.04 18.26 315.70 23.29L315.70 23.29L315.70 23.29Q314.36 28.32 313.62 32.71L313.62 32.71L313.62 32.71Q312.89 37.11 312.89 40.43L312.89 40.43L312.89 40.43Q312.89 41.26 312.99 42.24L312.99 42.24L312.99 42.24Q313.09 43.21 313.38 44.04L313.38 44.04L313.38 44.04Q313.67 44.87 314.21 45.43L314.21 45.43L314.21 45.43Q314.75 46.00 315.63 46.00L315.63 46.00L315.63 46.00Q317.24 46.00 318.41 43.97L318.41 43.97L318.41 43.97Q319.58 41.94 320.39 38.50L320.39 38.50L320.39 38.50Q321.19 35.06 321.73 30.59L321.73 30.59L321.73 30.59Q322.27 26.12 322.58 21.24L322.58 21.24L322.58 21.24Q322.90 16.36 323.05 11.40L323.05 11.40L323.05 11.40Q323.19 6.45 323.29 2.05ZM361.08-5.37L361.08-5.37L361.08-5.37Q362.11-3.96 363.72-3.10L363.72-3.10L363.72-3.10Q365.33-2.25 367.68-2.25L367.68-2.25L367.68-2.25Q370.07-2.25 372.02-3.39L372.02-3.39L372.02-3.39Q373.97-4.54 375.59-6.40L375.59-6.40L375.59-6.40Q377.20-8.25 378.47-10.55L378.47-10.55L378.47-10.55Q379.74-12.84 380.76-15.14L380.76-15.14L380.76-15.14Q381.01-15.67 381.45-15.94L381.45-15.94L381.45-15.94Q381.88-16.21 382.42-16.21L382.42-16.21L382.42-16.21Q383.25-16.21 383.76-15.63L383.76-15.63L383.76-15.63Q384.28-15.04 384.28-14.36L384.28-14.36L384.28-14.36Q384.28-14.11 384.23-13.94L384.23-13.94L384.23-13.94Q384.18-13.77 384.08-13.57L384.08-13.57L384.08-13.57Q380.71-6.15 376.73-2.39L376.73-2.39L376.73-2.39Q372.75 1.37 367.72 1.46L367.72 1.46L367.72 1.46Q364.50 1.46 362.16 0.22L362.16 0.22L362.16 0.22Q359.81-1.03 358.30-3.00L358.30-3.00L358.30-3.00Q356.79-4.98 356.05-7.47L356.05-7.47L356.05-7.47Q355.32-9.96 355.32-12.45L355.32-12.45L355.32-12.45Q355.32-14.94 355.93-17.04L355.93-17.04L355.93-17.04Q356.54-19.14 357.69-20.70L357.69-20.70L357.69-20.70Q358.84-22.27 360.42-23.14L360.42-23.14L360.42-23.14Q362.01-24.02 363.92-24.02L363.92-24.02L363.92-24.02Q365.04-24.02 366.14-23.56L366.14-23.56L366.14-23.56Q367.24-23.10 368.12-22.24L368.12-22.24L368.12-22.24Q368.99-21.39 369.53-20.17L369.53-20.17L369.53-20.17Q370.07-18.95 370.07-17.38L370.07-17.38L370.07-17.38Q370.07-15.38 369.38-13.62L369.38-13.62L369.38-13.62Q368.70-11.87 367.50-10.35L367.50-10.35L367.50-10.35Q366.31-8.84 364.65-7.57L364.65-7.57L364.65-7.57Q362.99-6.30 361.08-5.37ZM359.62-8.54L359.62-8.54L359.62-8.54Q361.13-9.18 362.38-10.16L362.38-10.16L362.38-10.16Q363.62-11.13 364.50-12.30L364.50-12.30L364.50-12.30Q365.38-13.48 365.87-14.77L365.87-14.77L365.87-14.77Q366.36-16.06 366.36-17.38L366.36-17.38L366.36-17.38Q366.36-18.85 365.63-19.60L365.63-19.60L365.63-19.60Q364.89-20.36 363.92-20.36L363.92-20.36L363.92-20.36Q362.60-20.36 361.67-19.63L361.67-19.63L361.67-19.63Q360.74-18.90 360.16-17.72L360.16-17.72L360.16-17.72Q359.57-16.55 359.30-15.11L359.30-15.11L359.30-15.11Q359.03-13.67 359.03-12.26L359.03-12.26L359.03-12.26Q359.03-11.38 359.20-10.40L359.20-10.40L359.20-10.40Q359.38-9.42 359.62-8.54Z" fill="#ffffff"></path></g></g><style>text {
  font-size: 64px;
  font-family: Arial Black;
  dominant-baseline: central;
  text-anchor: middle;
}</style></svg>