<svg width="324.7461669921875px" height="219.21875px" xmlns="http://www.w3.org/2000/svg" viewBox="87.62691650390624 -34.609375 324.7461669921875 219.21875" style="background: none;" preserveAspectRatio="xMidYMid"><defs><filter id="editing-hover" x="-100%" y="-100%" width="300%" height="300%"><feFlood flood-color="#052b4a" result="flood"></feFlood><feComposite operator="in" in2="SourceAlpha" in="flood" result="shadow"></feComposite><feOffset dx="-4" dy="-4" in="SourceGraphic" result="offset-1"></feOffset><feOffset dx="4" dy="4" in="shadow" result="offset-2"></feOffset><feMerge><feMergeNode in="offset-2"></feMergeNode><feMergeNode in="offset-1"></feMergeNode></feMerge></filter></defs><g filter="url(#editing-hover)"><g transform="translate(139.47280883789062, 113.90219116210938)"><path d="M81.49-7.91L81.98-7.71L81.98-7.71Q81.84-7.18 81.30-5.98L81.30-5.98L81.30-5.98Q80.76-4.79 79.96-3.27L79.96-3.27L79.96-3.27Q79.15-1.76 78.13-0.12L78.13-0.12L78.13-0.12Q77.10 1.51 75.98 2.86L75.98 2.86L75.98 2.86Q74.85 4.20 73.63 5.05L73.63 5.05L73.63 5.05Q72.41 5.91 71.29 5.91L71.29 5.91L71.29 5.91Q69.58 5.91 68.38 4.35L68.38 4.35L68.38 4.35Q67.19 2.78 66.46 0.44L66.46 0.44L66.46 0.44Q65.72-1.90 65.41-4.69L65.41-4.69L65.41-4.69Q65.09-7.47 65.09-9.91L65.09-9.91L65.09-9.91Q65.09-17.48 66.06-24.88L66.06-24.88L66.06-24.88Q67.04-32.28 68.63-39.55L68.63-39.55L68.63-39.55Q70.21-46.83 72.24-53.98L72.24-53.98L72.24-53.98Q74.27-61.13 76.32-68.21L76.32-68.21L76.32-68.21Q75.29-68.21 73.46-65.77L73.46-65.77L73.46-65.77Q71.63-63.33 69.29-59.33L69.29-59.33L69.29-59.33Q66.94-55.32 64.21-50.15L64.21-50.15L64.21-50.15Q61.47-44.97 58.69-39.53L58.69-39.53L58.69-39.53Q55.91-34.08 53.17-28.78L53.17-28.78L53.17-28.78Q50.44-23.49 48.10-19.19L48.10-19.19L48.10-19.19Q47.85-18.75 47.46-18.09L47.46-18.09L47.46-18.09Q47.07-17.43 46.56-16.85L46.56-16.85L46.56-16.85Q46.04-16.26 45.41-15.82L45.41-15.82L45.41-15.82Q44.78-15.38 44.09-15.38L44.09-15.38L44.09-15.38Q43.36-15.38 43.07-15.87L43.07-15.87L43.07-15.87Q42.77-16.36 42.68-17.19L42.68-17.19L42.68-17.19Q42.43-20.07 42.24-23.71L42.24-23.71L42.24-23.71Q42.04-27.34 41.82-31.13L41.82-31.13L41.82-31.13Q41.60-34.91 41.36-38.60L41.36-38.60L41.36-38.60Q41.11-42.29 40.82-45.34L40.82-45.34L40.82-45.34Q40.53-48.39 40.14-50.51L40.14-50.51L40.14-50.51Q39.75-52.64 39.21-53.32L39.21-53.32L39.21-53.32Q39.21-52.93 39.26-52.44L39.26-52.44L39.26-52.44Q39.26-52.05 39.28-51.46L39.28-51.46L39.28-51.46Q39.31-50.88 39.31-50.20L39.31-50.20L39.31-50.20Q39.31-47.75 38.82-44.19L38.82-44.19L38.82-44.19Q38.33-40.63 37.35-36.45L37.35-36.45L37.35-36.45Q36.38-32.28 34.94-27.76L34.94-27.76L34.94-27.76Q33.50-23.24 31.59-18.90L31.59-18.90L31.59-18.90Q29.69-14.55 27.34-10.62L27.34-10.62L27.34-10.62Q25-6.69 22.17-3.74L22.17-3.74L22.17-3.74Q19.34-0.78 16.09 0.95L16.09 0.95L16.09 0.95Q12.84 2.69 9.18 2.69L9.18 2.69L9.18 2.69Q6.69 2.69 5.03 1.73L5.03 1.73L5.03 1.73Q3.37 0.78 2.34-0.56L2.34-0.56L2.34-0.56Q1.32-1.90 0.78-3.34L0.78-3.34L0.78-3.34Q0.24-4.79 0-5.71L0-5.71L0.49-5.91L0.49-5.91Q1.07-4.49 2.10-3.56L2.10-3.56L2.10-3.56Q3.13-2.64 4.37-2.10L4.37-2.10L4.37-2.10Q5.62-1.56 7.01-1.34L7.01-1.34L7.01-1.34Q8.40-1.12 9.81-1.12L9.81-1.12L9.81-1.12Q13.04-1.12 15.97-2.61L15.97-2.61L15.97-2.61Q18.90-4.10 21.46-6.67L21.46-6.67L21.46-6.67Q24.02-9.23 26.25-12.67L26.25-12.67L26.25-12.67Q28.47-16.11 30.30-20.02L30.30-20.02L30.30-20.02Q32.13-23.93 33.52-28.10L33.52-28.10L33.52-28.10Q34.91-32.28 35.86-36.33L35.86-36.33L35.86-36.33Q36.82-40.38 37.28-44.09L37.28-44.09L37.28-44.09Q37.74-47.80 37.70-50.78L37.70-50.78L37.70-50.78Q37.70-51.46 37.60-52.34L37.60-52.34L37.60-52.34Q37.50-53.22 37.40-54.00L37.40-54.00L37.40-54.00Q37.45-54.20 37.62-54.54L37.62-54.54L37.62-54.54Q37.79-54.88 38.09-55.22L38.09-55.22L38.09-55.22Q38.38-55.57 38.79-55.79L38.79-55.79L38.79-55.79Q39.21-56.01 39.79-56.01L39.79-56.01L39.79-56.01Q41.16-56.01 42.07-54.05L42.07-54.05L42.07-54.05Q42.97-52.10 43.51-48.93L43.51-48.93L43.51-48.93Q44.04-45.75 44.34-41.72L44.34-41.72L44.34-41.72Q44.63-37.70 44.82-33.54L44.82-33.54L44.82-33.54Q45.02-29.39 45.17-25.49L45.17-25.49L45.17-25.49Q45.31-21.58 45.61-18.70L45.61-18.70L45.61-18.70Q45.90-18.70 46.75-20.21L46.75-20.21L46.75-20.21Q47.61-21.73 48.93-24.29L48.93-24.29L48.93-24.29Q50.24-26.86 51.95-30.30L51.95-30.30L51.95-30.30Q53.66-33.74 55.59-37.60L55.59-37.60L55.59-37.60Q57.52-41.46 59.64-45.56L59.64-45.56L59.64-45.56Q61.77-49.66 63.89-53.52L63.89-53.52L63.89-53.52Q66.02-57.37 68.12-60.82L68.12-60.82L68.12-60.82Q70.21-64.26 72.12-66.82L72.12-66.82L72.12-66.82Q74.02-69.38 75.68-70.90L75.68-70.90L75.68-70.90Q77.34-72.41 78.61-72.41L78.61-72.41L78.61-72.41Q79.00-72.17 79.39-71.85L79.39-71.85L79.39-71.85Q79.79-71.53 79.79-71.09L79.79-71.09L79.79-71.09Q77.98-64.50 75.98-57.10L75.98-57.10L75.98-57.10Q73.97-49.71 72.29-41.94L72.29-41.94L72.29-41.94Q70.61-34.18 69.51-26.27L69.51-26.27L69.51-26.27Q68.41-18.36 68.41-10.69L68.41-10.69L68.41-10.69Q68.41-8.84 68.70-6.62L68.70-6.62L68.70-6.62Q68.99-4.39 69.58-2.49L69.58-2.49L69.58-2.49Q70.17-0.59 71.00 0.71L71.00 0.71L71.00 0.71Q71.83 2.00 72.90 2.00L72.90 2.00L72.90 2.00Q73.83 2.00 75.10 0.83L75.10 0.83L75.10 0.83Q76.37-0.34 77.64-1.93L77.64-1.93L77.64-1.93Q78.91-3.52 79.96-5.20L79.96-5.20L79.96-5.20Q81.01-6.88 81.49-7.91L81.49-7.91ZM90.82-3.08L90.82-3.08L90.82-3.08Q91.99-3.08 93.12-3.59L93.12-3.59L93.12-3.59Q94.24-4.10 95.12-5.10L95.12-5.10L95.12-5.10Q96.00-6.10 96.51-7.57L96.51-7.57L96.51-7.57Q97.02-9.03 97.02-10.99L97.02-10.99L97.02-10.99Q97.02-12.60 96.63-14.04L96.63-14.04L96.63-14.04Q96.24-15.48 95.48-16.55L95.48-16.55L95.48-16.55Q94.73-17.63 93.53-18.26L93.53-18.26L93.53-18.26Q92.33-18.90 90.72-18.90L90.72-18.90L90.72-18.90Q89.60-18.90 88.48-18.48L88.48-18.48L88.48-18.48Q87.35-18.07 86.47-17.16L86.47-17.16L86.47-17.16Q85.60-16.26 85.06-14.87L85.06-14.87L85.06-14.87Q84.52-13.48 84.52-11.52L84.52-11.52L84.52-11.52Q84.52-9.96 84.91-8.47L84.91-8.47L84.91-8.47Q85.30-6.98 86.06-5.76L86.06-5.76L86.06-5.76Q86.82-4.54 88.01-3.81L88.01-3.81L88.01-3.81Q89.21-3.08 90.82-3.08ZM89.11-0.59L89.11-0.59L89.11-0.59Q85.89-0.59 83.84-2.71L83.84-2.71L83.84-2.71Q81.79-4.83 81.79-8.89L81.79-8.89L81.79-8.89Q81.79-11.62 82.81-13.94L82.81-13.94L82.81-13.94Q83.84-16.26 85.47-17.94L85.47-17.94L85.47-17.94Q87.11-19.63 89.11-20.56L89.11-20.56L89.11-20.56Q91.11-21.48 93.02-21.48L93.02-21.48L93.02-21.48Q96.09-21.48 97.95-19.38L97.95-19.38L97.95-19.38Q99.80-17.29 99.80-13.18L99.80-13.18L99.80-13.18Q99.80-10.45 98.85-8.15L98.85-8.15L98.85-8.15Q97.90-5.86 96.36-4.17L96.36-4.17L96.36-4.17Q94.82-2.49 92.92-1.54L92.92-1.54L92.92-1.54Q91.02-0.59 89.11-0.59ZM112.84-3.08L112.84-3.08L112.84-3.08Q114.01-3.08 115.14-3.59L115.14-3.59L115.14-3.59Q116.26-4.10 117.14-5.10L117.14-5.10L117.14-5.10Q118.02-6.10 118.53-7.57L118.53-7.57L118.53-7.57Q119.04-9.03 119.04-10.99L119.04-10.99L119.04-10.99Q119.04-12.60 118.65-14.04L118.65-14.04L118.65-14.04Q118.26-15.48 117.50-16.55L117.50-16.55L117.50-16.55Q116.75-17.63 115.55-18.26L115.55-18.26L115.55-18.26Q114.36-18.90 112.74-18.90L112.74-18.90L112.74-18.90Q111.62-18.90 110.50-18.48L110.50-18.48L110.50-18.48Q109.38-18.07 108.50-17.16L108.50-17.16L108.50-17.16Q107.62-16.26 107.08-14.87L107.08-14.87L107.08-14.87Q106.54-13.48 106.54-11.52L106.54-11.52L106.54-11.52Q106.54-9.96 106.93-8.47L106.93-8.47L106.93-8.47Q107.32-6.98 108.08-5.76L108.08-5.76L108.08-5.76Q108.84-4.54 110.03-3.81L110.03-3.81L110.03-3.81Q111.23-3.08 112.84-3.08ZM111.13-0.59L111.13-0.59L111.13-0.59Q107.91-0.59 105.86-2.71L105.86-2.71L105.86-2.71Q103.81-4.83 103.81-8.89L103.81-8.89L103.81-8.89Q103.81-11.62 104.83-13.94L104.83-13.94L104.83-13.94Q105.86-16.26 107.50-17.94L107.50-17.94L107.50-17.94Q109.13-19.63 111.13-20.56L111.13-20.56L111.13-20.56Q113.13-21.48 115.04-21.48L115.04-21.48L115.04-21.48Q118.12-21.48 119.97-19.38L119.97-19.38L119.97-19.38Q121.83-17.29 121.83-13.18L121.83-13.18L121.83-13.18Q121.83-10.45 120.87-8.15L120.87-8.15L120.87-8.15Q119.92-5.86 118.38-4.17L118.38-4.17L118.38-4.17Q116.85-2.49 114.94-1.54L114.94-1.54L114.94-1.54Q113.04-0.59 111.13-0.59ZM129.05-21.78L129.05-21.78L129.05-21.78Q129.30-21.78 129.44-21.39L129.44-21.39L129.44-21.39Q129.59-21.00 129.66-20.46L129.66-20.46L129.66-20.46Q129.74-19.92 129.74-19.31L129.74-19.31L129.74-19.31Q129.74-18.70 129.74-18.21L129.74-18.21L129.74-18.21Q129.74-16.94 129.66-15.60L129.66-15.60L129.66-15.60Q129.59-14.26 129.52-13.01L129.52-13.01L129.52-13.01Q129.44-11.77 129.39-10.72L129.39-10.72L129.39-10.72Q129.35-9.67 129.35-8.98L129.35-8.98L129.35-8.98Q129.35-7.71 129.44-6.96L129.44-6.96L129.44-6.96Q129.54-6.20 129.93-6.20L129.93-6.20L129.93-6.20Q130.18-6.20 130.57-6.84L130.57-6.84L130.57-6.84Q130.96-7.47 131.42-8.37L131.42-8.37L131.42-8.37Q131.88-9.28 132.32-10.30L132.32-10.30L132.32-10.30Q132.76-11.33 133.15-12.11L133.15-12.11L133.15-12.11Q133.64-13.13 134.25-14.38L134.25-14.38L134.25-14.38Q134.86-15.63 135.55-16.72L135.55-16.72L135.55-16.72Q136.23-17.82 136.99-18.55L136.99-18.55L136.99-18.55Q137.74-19.29 138.57-19.29L138.57-19.29L138.57-19.29Q139.11-19.29 139.53-18.99L139.53-18.99L139.53-18.99Q139.94-18.70 140.23-18.24L140.23-18.24L140.23-18.24Q140.53-17.77 140.70-17.26L140.70-17.26L140.70-17.26Q140.87-16.75 140.97-16.31L140.97-16.31L140.97-16.31Q141.11-15.19 141.28-12.77L141.28-12.77L141.28-12.77Q141.46-10.35 141.75-7.62L141.75-7.62L141.75-7.62Q141.99-4.88 143.07-3.64L143.07-3.64L143.07-3.64Q144.14-2.39 145.85-2.39L145.85-2.39L145.85-2.39Q146.53-2.39 146.95-2.49L146.95-2.49L146.95-2.49Q147.36-2.59 147.66-2.59L147.66-2.59L147.66-2.59Q147.90-2.59 147.75-2.10L147.75-2.10L147.75-2.10Q147.71-2.00 147.53-1.83L147.53-1.83L147.53-1.83Q147.36-1.66 146.97-1.46L146.97-1.46L146.97-1.46Q146.58-1.27 145.92-1.12L145.92-1.12L145.92-1.12Q145.26-0.98 144.34-0.98L144.34-0.98L144.34-0.98Q142.77-0.98 141.75-1.49L141.75-1.49L141.75-1.49Q140.72-2.00 140.09-3.13L140.09-3.13L140.09-3.13Q139.45-4.25 139.16-6.03L139.16-6.03L139.16-6.03Q138.87-7.81 138.77-10.30L138.77-10.30L138.77-10.30Q138.67-11.47 138.60-12.57L138.60-12.57L138.60-12.57Q138.53-13.67 138.35-14.53L138.35-14.53L138.35-14.53Q138.18-15.38 137.89-15.89L137.89-15.89L137.89-15.89Q137.60-16.41 137.06-16.41L137.06-16.41L137.06-16.41Q136.62-16.41 136.01-15.53L136.01-15.53L136.01-15.53Q135.40-14.65 134.81-13.45L134.81-13.45L134.81-13.45Q134.23-12.26 133.72-10.99L133.72-10.99L133.72-10.99Q133.20-9.72 132.86-8.98L132.86-8.98L132.86-8.98Q131.79-6.69 131.08-5.22L131.08-5.22L131.08-5.22Q130.37-3.76 129.54-2.39L129.54-2.39L129.54-2.39Q129.30-2.00 129.03-1.76L129.03-1.76L129.03-1.76Q128.76-1.51 128.37-1.51L128.37-1.51L128.37-1.51Q127.78-1.51 127.44-2.49L127.44-2.49L127.44-2.49Q127.10-3.47 126.93-4.74L126.93-4.74L126.93-4.74Q126.76-6.01 126.71-7.30L126.71-7.30L126.71-7.30Q126.66-8.59 126.66-9.28L126.66-9.28L126.66-9.28Q126.66-10.06 126.68-11.18L126.68-11.18L126.68-11.18Q126.71-12.30 126.76-13.38L126.76-13.38L126.76-13.38Q126.81-14.45 126.83-15.33L126.83-15.33L126.83-15.33Q126.86-16.21 126.86-16.50L126.86-16.50L126.86-16.50Q126.86-16.80 126.83-17.31L126.83-17.31L126.83-17.31Q126.81-17.82 126.81-18.33L126.81-18.33L126.81-18.33Q126.81-18.85 126.78-19.26L126.78-19.26L126.78-19.26Q126.76-19.68 126.76-19.82L126.76-19.82L126.76-19.82Q126.76-20.21 126.98-20.48L126.98-20.48L126.98-20.48Q127.20-20.75 127.44-20.90L127.44-20.90L127.44-20.90Q127.69-21.04 128.22-21.41L128.22-21.41L128.22-21.41Q128.76-21.78 129.05-21.78ZM157.96-20.61L157.96-20.61L157.96-20.61Q159.18-20.61 159.91-20.09L159.91-20.09L159.91-20.09Q160.64-19.58 161.01-18.87L161.01-18.87L161.01-18.87Q161.38-18.16 161.47-17.43L161.47-17.43L161.47-17.43Q161.57-16.70 161.57-16.21L161.57-16.21L161.57-16.21Q161.57-15.63 161.43-14.36L161.43-14.36L161.43-14.36Q161.28-13.09 161.13-11.72L161.13-11.72L161.13-11.72Q160.99-10.35 160.84-9.18L160.84-9.18L160.84-9.18Q160.69-8.01 160.69-7.62L160.69-7.62L160.69-7.62Q160.69-6.64 160.84-5.83L160.84-5.83L160.84-5.83Q160.99-5.03 161.38-4.39L161.38-4.39L161.38-4.39Q161.77-3.76 162.45-3.42L162.45-3.42L162.45-3.42Q163.13-3.08 164.26-3.08L164.26-3.08L164.26-3.08Q166.31-3.08 168.55-5.13L168.55-5.13L168.55-5.13Q170.80-7.18 172.75-10.79L172.75-10.79L173.05-10.60L173.05-10.60Q172.51-8.79 171.39-6.91L171.39-6.91L171.39-6.91Q170.26-5.03 168.80-3.47L168.80-3.47L168.80-3.47Q167.33-1.90 165.67-0.90L165.67-0.90L165.67-0.90Q164.01 0.10 162.45 0.10L162.45 0.10L162.45 0.10Q161.13 0.10 160.33-0.46L160.33-0.46L160.33-0.46Q159.52-1.03 159.08-1.88L159.08-1.88L159.08-1.88Q158.64-2.73 158.50-3.74L158.50-3.74L158.50-3.74Q158.35-4.74 158.35-5.62L158.35-5.62L158.35-5.62Q158.35-6.69 158.54-8.13L158.54-8.13L158.54-8.13Q158.74-9.57 158.96-11.01L158.96-11.01L158.96-11.01Q159.18-12.45 159.38-13.72L159.38-13.72L159.38-13.72Q159.57-14.99 159.57-15.72L159.57-15.72L159.57-15.72Q159.57-16.36 159.35-16.75L159.35-16.75L159.35-16.75Q159.13-17.14 158.79-17.36L158.79-17.36L158.79-17.36Q158.45-17.58 158.11-17.63L158.11-17.63L158.11-17.63Q157.76-17.68 157.57-17.68L157.57-17.68L157.57-17.68Q157.03-17.68 156.18-17.53L156.18-17.53L156.18-17.53Q155.32-17.38 153.76-17.38L153.76-17.38L153.76-17.38Q153.32-17.38 152.88-17.43L152.88-17.43L152.88-17.43Q152.44-17.48 151.95-17.58L151.95-17.58L151.95-17.58Q151.81-15.67 151.34-13.87L151.34-13.87L151.34-13.87Q150.88-12.06 150.32-10.55L150.32-10.55L150.32-10.55Q149.76-9.03 149.17-7.93L149.17-7.93L149.17-7.93Q148.58-6.84 148.19-6.40L148.19-6.40L148.19-6.40Q147.56-6.40 147.56-6.98L147.56-6.98L147.56-6.98Q147.61-7.28 148.07-8.18L148.07-8.18L148.07-8.18Q148.54-9.08 149.10-10.50L149.10-10.50L149.10-10.50Q149.66-11.91 150.17-13.87L150.17-13.87L150.17-13.87Q150.68-15.82 150.78-18.21L150.78-18.21L150.78-18.21Q148.49-19.53 148.49-22.90L148.49-22.90L148.49-22.90Q148.49-23.83 148.85-24.46L148.85-24.46L148.85-24.46Q149.22-25.10 149.95-25.10L149.95-25.10L149.95-25.10Q151.03-25.10 151.49-23.85L151.49-23.85L151.49-23.85Q151.95-22.61 152.05-20.51L152.05-20.51L152.05-20.51Q152.39-20.41 152.71-20.36L152.71-20.36L152.71-20.36Q153.03-20.31 153.47-20.31L153.47-20.31L153.47-20.31Q154.74-20.31 155.83-20.46L155.83-20.46L155.83-20.46Q156.93-20.61 157.96-20.61ZM150.49-21.78L150.49-21.78L150.49-21.78Q150.49-21.58 150.68-21.39L150.68-21.39L150.68-21.39Q150.63-21.63 150.61-21.88L150.61-21.88L150.61-21.88Q150.59-22.12 150.54-22.27L150.54-22.27L150.54-22.27Q150.49-22.46 150.49-22.61L150.49-22.61L150.49-22.61Q150.34-22.61 150.24-22.46L150.24-22.46L150.24-22.46Q150.15-22.31 150.49-21.78ZM173.39-20.31L173.39-20.31L173.39-20.31Q173.78-20.31 174.15-20.09L174.15-20.09L174.15-20.09Q174.51-19.87 174.78-19.63L174.78-19.63L174.78-19.63Q175.05-19.38 175.22-19.12L175.22-19.12L175.22-19.12Q175.39-18.85 175.39-18.80L175.39-18.80L175.39-18.80Q175.39-18.75 175.27-18.29L175.27-18.29L175.27-18.29Q175.15-17.82 174.98-16.75L174.98-16.75L174.98-16.75Q174.80-15.67 174.68-13.94L174.68-13.94L174.68-13.94Q174.56-12.21 174.56-9.62L174.56-9.62L174.56-9.62Q174.56-6.15 175.42-4.79L175.42-4.79L175.42-4.79Q176.27-3.42 177.49-3.42L177.49-3.42L177.49-3.42Q178.71-3.42 179.91-4.15L179.91-4.15L179.91-4.15Q181.10-4.88 182.18-6.05L182.18-6.05L182.18-6.05Q183.25-7.23 184.20-8.72L184.20-8.72L184.20-8.72Q185.16-10.21 185.89-11.72L185.89-11.72L186.18-11.52L186.18-11.52Q185.99-11.04 185.60-10.03L185.60-10.03L185.60-10.03Q185.21-9.03 184.62-7.86L184.62-7.86L184.62-7.86Q184.03-6.69 183.23-5.44L183.23-5.44L183.23-5.44Q182.42-4.20 181.37-3.20L181.37-3.20L181.37-3.20Q180.32-2.20 179.08-1.54L179.08-1.54L179.08-1.54Q177.83-0.88 176.37-0.88L176.37-0.88L176.37-0.88Q175.34-0.88 174.49-1.27L174.49-1.27L174.49-1.27Q173.63-1.66 172.97-2.71L172.97-2.71L172.97-2.71Q172.31-3.76 171.95-5.62L171.95-5.62L171.95-5.62Q171.58-7.47 171.58-10.40L171.58-10.40L171.58-10.40Q171.58-11.91 171.70-13.65L171.70-13.65L171.70-13.65Q171.83-15.38 172.05-16.87L172.05-16.87L172.05-16.87Q172.27-18.36 172.61-19.34L172.61-19.34L172.61-19.34Q172.95-20.31 173.39-20.31ZM174.56-32.42L174.56-32.42L174.56-32.42Q175.78-32.42 176.32-31.57L176.32-31.57L176.32-31.57Q176.86-30.71 176.86-29.49L176.86-29.49L176.86-29.49Q176.86-28.08 176.07-27.29L176.07-27.29L176.07-27.29Q175.29-26.51 174.17-26.51L174.17-26.51L174.17-26.51Q173.34-26.51 172.56-27.15L172.56-27.15L172.56-27.15Q171.78-27.78 171.78-29.20L171.78-29.20L171.78-29.20Q171.78-30.76 172.56-31.59L172.56-31.59L172.56-31.59Q173.34-32.42 174.56-32.42ZM183.15-5.52L182.57-5.91L182.57-5.91Q184.23-8.54 185.55-11.30L185.55-11.30L185.55-11.30Q186.87-14.06 187.74-16.70L187.74-16.70L187.74-16.70Q186.57-18.36 185.77-20.09L185.77-20.09L185.77-20.09Q184.96-21.83 184.96-23.68L184.96-23.68L184.96-23.68Q184.96-25.49 185.30-26.95L185.30-26.95L185.30-26.95Q185.64-28.42 186.23-29.44L186.23-29.44L186.23-29.44Q186.82-30.47 187.55-31.03L187.55-31.03L187.55-31.03Q188.28-31.59 189.06-31.59L189.06-31.59L189.06-31.59Q190.14-31.59 190.80-30.52L190.80-30.52L190.80-30.52Q191.46-29.44 191.36-27.78L191.36-27.78L191.36-27.78Q191.26-25.83 190.84-23.58L190.84-23.58L190.84-23.58Q190.43-21.34 189.65-18.99L189.65-18.99L189.65-18.99Q190.63-17.87 191.67-16.77L191.67-16.77L191.67-16.77Q192.72-15.67 193.58-14.50L193.58-14.50L193.58-14.50Q194.43-13.33 195.00-11.99L195.00-11.99L195.00-11.99Q195.56-10.64 195.56-9.08L195.56-9.08L195.56-9.08Q195.56-6.93 194.75-5.13L194.75-5.13L194.75-5.13Q193.95-3.32 192.82-2.00L192.82-2.00L192.82-2.00Q191.70-0.68 190.48 0.05L190.48 0.05L190.48 0.05Q189.26 0.78 188.38 0.78L188.38 0.78L188.38 0.78Q186.87 0.78 186.06 0L186.06 0L186.06 0Q185.25-0.78 185.25-1.71L185.25-1.71L185.25-1.71Q185.25-2.44 185.50-3.17L185.50-3.17L185.50-3.17Q185.74-3.91 186.06-4.52L186.06-4.52L186.06-4.52Q186.38-5.13 186.69-5.52L186.69-5.52L186.69-5.52Q187.01-5.91 187.16-5.91L187.16-5.91L187.16-5.91Q187.40-5.91 187.48-5.74L187.48-5.74L187.48-5.74Q187.55-5.57 187.55-5.42L187.55-5.42L187.55-5.42Q187.55-5.18 187.50-4.74L187.50-4.74L187.50-4.74Q187.45-4.30 187.45-4.00L187.45-4.00L187.45-4.00Q187.45-3.17 188.01-2.64L188.01-2.64L188.01-2.64Q188.57-2.10 189.84-2.10L189.84-2.10L189.84-2.10Q190.38-2.10 191.06-2.34L191.06-2.34L191.06-2.34Q191.75-2.59 192.38-3.13L192.38-3.13L192.38-3.13Q193.02-3.66 193.43-4.47L193.43-4.47L193.43-4.47Q193.85-5.27 193.85-6.40L193.85-6.40L193.85-6.40Q193.85-7.42 193.36-8.54L193.36-8.54L193.36-8.54Q192.87-9.67 192.09-10.84L192.09-10.84L192.09-10.84Q191.31-12.01 190.36-13.23L190.36-13.23L190.36-13.23Q189.40-14.45 188.48-15.72L188.48-15.72L188.48-15.72Q187.35-12.94 186.01-10.33L186.01-10.33L186.01-10.33Q184.67-7.71 183.15-5.52L183.15-5.52ZM186.28-26.22L186.28-26.22L186.28-26.22Q186.28-24.37 186.96-22.92L186.96-22.92L186.96-22.92Q187.65-21.48 188.77-20.12L188.77-20.12L188.77-20.12Q189.16-21.63 189.31-23.02L189.31-23.02L189.31-23.02Q189.45-24.41 189.45-25.68L189.45-25.68L189.45-25.68Q189.45-29.10 187.94-29.10L187.94-29.10L187.94-29.10Q187.50-29.10 186.89-28.44L186.89-28.44L186.89-28.44Q186.28-27.78 186.28-26.22ZM214.75-24.12L214.75-24.12L214.75-24.12Q215.38-23.97 215.38-23.29L215.38-23.29L215.38-23.29Q215.38-23.10 215.26-22.78L215.26-22.78L215.26-22.78Q215.14-22.46 214.97-22.14L214.97-22.14L214.97-22.14Q214.79-21.83 214.60-21.61L214.60-21.61L214.60-21.61Q214.40-21.39 214.26-21.39L214.26-21.39L214.26-21.39Q214.01-21.39 213.67-21.56L213.67-21.56L213.67-21.56Q213.33-21.73 212.70-21.95L212.70-21.95L212.70-21.95Q212.06-22.17 211.04-22.34L211.04-22.34L211.04-22.34Q210.01-22.51 208.35-22.51L208.35-22.51L208.35-22.51Q206.01-22.51 204.44-21.63L204.44-21.63L204.44-21.63Q202.88-20.75 202.88-19.19L202.88-19.19L202.88-19.19Q202.88-18.07 203.83-17.31L203.83-17.31L203.83-17.31Q204.79-16.55 206.08-16.11L206.08-16.11L206.08-16.11Q207.37-15.67 208.72-15.48L208.72-15.48L208.72-15.48Q210.06-15.28 210.79-15.28L210.79-15.28L210.79-15.28Q211.33-15.28 211.50-15.11L211.50-15.11L211.50-15.11Q211.67-14.94 211.67-14.79L211.67-14.79L211.67-14.79Q211.67-14.40 211.35-14.33L211.35-14.33L211.35-14.33Q211.04-14.26 210.55-14.11L210.55-14.11L210.55-14.11Q209.28-13.67 207.96-13.01L207.96-13.01L207.96-13.01Q206.64-12.35 205.54-11.45L205.54-11.45L205.54-11.45Q204.44-10.55 203.76-9.42L203.76-9.42L203.76-9.42Q203.08-8.30 203.08-6.98L203.08-6.98L203.08-6.98Q203.08-4.79 204.86-3.34L204.86-3.34L204.86-3.34Q206.64-1.90 209.86-1.90L209.86-1.90L209.86-1.90Q213.53-1.90 215.97-3.00L215.97-3.00L215.97-3.00Q218.41-4.10 220.00-5.57L220.00-5.57L220.00-5.57Q221.58-7.03 222.46-8.52L222.46-8.52L222.46-8.52Q223.34-10.01 223.78-10.79L223.78-10.79L224.07-10.60L224.07-10.60Q223.24-8.20 221.95-6.15L221.95-6.15L221.95-6.15Q220.65-4.10 218.82-2.61L218.82-2.61L218.82-2.61Q216.99-1.12 214.55-0.27L214.55-0.27L214.55-0.27Q212.11 0.59 208.98 0.59L208.98 0.59L208.98 0.59Q207.08 0.59 205.47 0.12L205.47 0.12L205.47 0.12Q203.86-0.34 202.69-1.17L202.69-1.17L202.69-1.17Q201.51-2.00 200.88-3.22L200.88-3.22L200.88-3.22Q200.24-4.44 200.24-6.01L200.24-6.01L200.24-6.01Q200.24-7.81 201.07-9.13L201.07-9.13L201.07-9.13Q201.90-10.45 202.98-11.30L202.98-11.30L202.98-11.30Q204.05-12.16 205.10-12.62L205.10-12.62L205.10-12.62Q206.15-13.09 206.59-13.28L206.59-13.28L206.59-13.28Q205.08-13.53 203.91-14.11L203.91-14.11L203.91-14.11Q202.93-14.65 202.10-15.60L202.10-15.60L202.10-15.60Q201.27-16.55 201.27-18.21L201.27-18.21L201.27-18.21Q201.27-19.73 202.00-20.97L202.00-20.97L202.00-20.97Q202.73-22.22 203.98-23.05L203.98-23.05L203.98-23.05Q205.22-23.88 206.86-24.34L206.86-24.34L206.86-24.34Q208.50-24.80 210.35-24.80L210.35-24.80L210.35-24.80Q211.43-24.80 212.52-24.66L212.52-24.66L212.52-24.66Q213.62-24.51 214.75-24.12Z" fill="#ffd5af"></path></g></g><style>text {
  font-size: 64px;
  font-family: Arial Black;
  dominant-baseline: central;
  text-anchor: middle;
}</style></svg>