<svg aria-hidden="true" style="position: absolute; width: 0; height: 0; overflow: hidden;" version="1.1" xmlns="http://www.w3.org/2000/svg" xmlns:xlink="http://www.w3.org/1999/xlink">
<defs>
<symbol id="icon-headphones" viewBox="0 0 32 32">
<title>headphones</title>
<path d="M9 18h-2v14h2c0.55 0 1-0.45 1-1v-12c0-0.55-0.45-1-1-1z"></path>
<path d="M23 18c-0.55 0-1 0.45-1 1v12c0 0.55 0.45 1 1 1h2v-14h-2z"></path>
<path d="M32 16c0-8.837-7.163-16-16-16s-16 7.163-16 16c0 1.919 0.338 3.759 0.958 5.464-0.609 1.038-0.958 2.246-0.958 3.536 0 3.526 2.608 6.443 6 6.929v-13.857c-0.997 0.143-1.927 0.495-2.742 1.012-0.168-0.835-0.258-1.699-0.258-2.584 0-7.18 5.82-13 13-13s13 5.82 13 13c0 0.885-0.088 1.749-0.257 2.584-0.816-0.517-1.745-0.87-2.743-1.013v13.858c3.392-0.485 6-3.402 6-6.929 0-1.29-0.349-2.498-0.958-3.536 0.62-1.705 0.958-3.545 0.958-5.465z"></path>
</symbol>
<symbol id="icon-music" viewBox="0 0 32 32">
<title>music</title>
<path d="M30 0h2v23c0 2.761-3.134 5-7 5s-7-2.239-7-5c0-2.761 3.134-5 7-5 1.959 0 3.729 0.575 5 1.501v-11.501l-16 3.556v15.444c0 2.761-3.134 5-7 5s-7-2.239-7-5c0-2.761 3.134-5 7-5 1.959 0 3.729 0.575 5 1.501v-19.501l18-4z"></path>
</symbol>
<symbol id="icon-equalizer" viewBox="0 0 32 32">
<title>equalizer</title>
<path d="M14 4v-0.5c0-0.825-0.675-1.5-1.5-1.5h-5c-0.825 0-1.5 0.675-1.5 1.5v0.5h-6v4h6v0.5c0 0.825 0.675 1.5 1.5 1.5h5c0.825 0 1.5-0.675 1.5-1.5v-0.5h18v-4h-18zM8 8v-4h4v4h-4zM26 13.5c0-0.825-0.675-1.5-1.5-1.5h-5c-0.825 0-1.5 0.675-1.5 1.5v0.5h-18v4h18v0.5c0 0.825 0.675 1.5 1.5 1.5h5c0.825 0 1.5-0.675 1.5-1.5v-0.5h6v-4h-6v-0.5zM20 18v-4h4v4h-4zM14 23.5c0-0.825-0.675-1.5-1.5-1.5h-5c-0.825 0-1.5 0.675-1.5 1.5v0.5h-6v4h6v0.5c0 0.825 0.675 1.5 1.5 1.5h5c0.825 0 1.5-0.675 1.5-1.5v-0.5h18v-4h-18v-0.5zM8 28v-4h4v4h-4z"></path>
</symbol>
<symbol id="icon-list" viewBox="0 0 32 32">
<title>list</title>
<path d="M0 0h8v8h-8zM12 2h20v4h-20zM0 12h8v8h-8zM12 14h20v4h-20zM0 24h8v8h-8zM12 26h20v4h-20z"></path>
</symbol>
<symbol id="icon-menu" viewBox="0 0 32 32">
<title>menu</title>
<path d="M2 6h28v6h-28zM2 14h28v6h-28zM2 22h28v6h-28z"></path>
</symbol>
<symbol id="icon-plus" viewBox="0 0 32 32">
<title>plus</title>
<path d="M31 12h-11v-11c0-0.552-0.448-1-1-1h-6c-0.552 0-1 0.448-1 1v11h-11c-0.552 0-1 0.448-1 1v6c0 0.552 0.448 1 1 1h11v11c0 0.552 0.448 1 1 1h6c0.552 0 1-0.448 1-1v-11h11c0.552 0 1-0.448 1-1v-6c0-0.552-0.448-1-1-1z"></path>
</symbol>
<symbol id="icon-info" viewBox="0 0 32 32">
<title>info</title>
<path d="M14 9.5c0-0.825 0.675-1.5 1.5-1.5h1c0.825 0 1.5 0.675 1.5 1.5v1c0 0.825-0.675 1.5-1.5 1.5h-1c-0.825 0-1.5-0.675-1.5-1.5v-1z"></path>
<path d="M20 24h-8v-2h2v-6h-2v-2h6v8h2z"></path>
</symbol>
<symbol id="icon-play2" viewBox="0 0 32 32">
<title>play2</title>
<path d="M16 0c-8.837 0-16 7.163-16 16s7.163 16 16 16 16-7.163 16-16-7.163-16-16-16zM16 29c-7.18 0-13-5.82-13-13s5.82-13 13-13 13 5.82 13 13-5.82 13-13 13zM12 9l12 7-12 7z"></path>
</symbol>
<symbol id="icon-pause" viewBox="0 0 32 32">
<title>pause</title>
<path d="M16 0c-8.837 0-16 7.163-16 16s7.163 16 16 16 16-7.163 16-16-7.163-16-16-16zM16 29c-7.18 0-13-5.82-13-13s5.82-13 13-13 13 5.82 13 13-5.82 13-13 13zM10 10h4v12h-4zM18 10h4v12h-4z"></path>
</symbol>
<symbol id="icon-stop" viewBox="0 0 32 32">
<title>stop</title>
<path d="M16 0c-8.837 0-16 7.163-16 16s7.163 16 16 16 16-7.163 16-16-7.163-16-16-16zM16 29c-7.18 0-13-5.82-13-13s5.82-13 13-13 13 5.82 13 13-5.82 13-13 13zM10 10h12v12h-12z"></path>
</symbol>
<symbol id="icon-play3" viewBox="0 0 32 32">
<title>play3</title>
<path d="M6 4l20 12-20 12z"></path>
</symbol>
<symbol id="icon-pause2" viewBox="0 0 32 32">
<title>pause2</title>
<path d="M4 4h10v24h-10zM18 4h10v24h-10z"></path>
</symbol>
<symbol id="icon-stop2" viewBox="0 0 32 32">
<title>stop2</title>
<path d="M4 4h24v24h-24z"></path>
</symbol>
<symbol id="icon-volume-high" viewBox="0 0 34 32">
<title>volume-high</title>
<path d="M27.814 28.814c-0.384 0-0.768-0.146-1.061-0.439-0.586-0.586-0.586-1.535 0-2.121 2.739-2.739 4.247-6.38 4.247-10.253s-1.508-7.514-4.247-10.253c-0.586-0.586-0.586-1.536 0-2.121s1.536-0.586 2.121 0c3.305 3.305 5.126 7.7 5.126 12.374s-1.82 9.069-5.126 12.374c-0.293 0.293-0.677 0.439-1.061 0.439zM22.485 25.985c-0.384 0-0.768-0.146-1.061-0.439-0.586-0.586-0.586-1.535 0-2.121 4.094-4.094 4.094-10.755 0-14.849-0.586-0.586-0.586-1.536 0-2.121s1.536-0.586 2.121 0c2.55 2.55 3.954 5.94 3.954 9.546s-1.404 6.996-3.954 9.546c-0.293 0.293-0.677 0.439-1.061 0.439v0zM17.157 23.157c-0.384 0-0.768-0.146-1.061-0.439-0.586-0.586-0.586-1.535 0-2.121 2.534-2.534 2.534-6.658 0-9.192-0.586-0.586-0.586-1.536 0-2.121s1.535-0.586 2.121 0c3.704 3.704 3.704 9.731 0 13.435-0.293 0.293-0.677 0.439-1.061 0.439z"></path>
<path d="M13 30c-0.26 0-0.516-0.102-0.707-0.293l-7.707-7.707h-3.586c-0.552 0-1-0.448-1-1v-10c0-0.552 0.448-1 1-1h3.586l7.707-7.707c0.286-0.286 0.716-0.372 1.090-0.217s0.617 0.519 0.617 0.924v26c0 0.404-0.244 0.769-0.617 0.924-0.124 0.051-0.254 0.076-0.383 0.076z"></path>
</symbol>
<symbol id="icon-volume-medium" viewBox="0 0 32 32">
<title>volume-medium</title>
<path d="M22.485 25.985c-0.384 0-0.768-0.146-1.061-0.439-0.586-0.586-0.586-1.535 0-2.121 4.094-4.094 4.094-10.755 0-14.849-0.586-0.586-0.586-1.536 0-2.121s1.536-0.586 2.121 0c2.55 2.55 3.954 5.94 3.954 9.546s-1.404 6.996-3.954 9.546c-0.293 0.293-0.677 0.439-1.061 0.439v0zM17.157 23.157c-0.384 0-0.768-0.146-1.061-0.439-0.586-0.586-0.586-1.535 0-2.121 2.534-2.534 2.534-6.658 0-9.192-0.586-0.586-0.586-1.536 0-2.121s1.535-0.586 2.121 0c3.704 3.704 3.704 9.731 0 13.435-0.293 0.293-0.677 0.439-1.061 0.439z"></path>
<path d="M13 30c-0.26 0-0.516-0.102-0.707-0.293l-7.707-7.707h-3.586c-0.552 0-1-0.448-1-1v-10c0-0.552 0.448-1 1-1h3.586l7.707-7.707c0.286-0.286 0.716-0.372 1.090-0.217s0.617 0.519 0.617 0.924v26c0 0.404-0.244 0.769-0.617 0.924-0.124 0.051-0.254 0.076-0.383 0.076z"></path>
</symbol>
<symbol id="icon-volume-low" viewBox="0 0 32 32">
<title>volume-low</title>
<path d="M17.157 23.157c-0.384 0-0.768-0.146-1.061-0.439-0.586-0.586-0.586-1.535 0-2.121 2.534-2.534 2.534-6.658 0-9.192-0.586-0.586-0.586-1.536 0-2.121s1.535-0.586 2.121 0c3.704 3.704 3.704 9.731 0 13.435-0.293 0.293-0.677 0.439-1.061 0.439z"></path>
<path d="M13 30c-0.26 0-0.516-0.102-0.707-0.293l-7.707-7.707h-3.586c-0.552 0-1-0.448-1-1v-10c0-0.552 0.448-1 1-1h3.586l7.707-7.707c0.286-0.286 0.716-0.372 1.090-0.217s0.617 0.519 0.617 0.924v26c0 0.404-0.244 0.769-0.617 0.924-0.124 0.051-0.254 0.076-0.383 0.076z"></path>
</symbol>
<symbol id="icon-volume-mute" viewBox="0 0 32 32">
<title>volume-mute</title>
<path d="M13 30c-0.26 0-0.516-0.102-0.707-0.293l-7.707-7.707h-3.586c-0.552 0-1-0.448-1-1v-10c0-0.552 0.448-1 1-1h3.586l7.707-7.707c0.286-0.286 0.716-0.372 1.090-0.217s0.617 0.519 0.617 0.924v26c0 0.404-0.244 0.769-0.617 0.924-0.124 0.051-0.254 0.076-0.383 0.076z"></path>
</symbol>
<symbol id="icon-volume-mute2" viewBox="0 0 32 32">
<title>volume-mute2</title>
<path d="M30 19.348v2.652h-2.652l-3.348-3.348-3.348 3.348h-2.652v-2.652l3.348-3.348-3.348-3.348v-2.652h2.652l3.348 3.348 3.348-3.348h2.652v2.652l-3.348 3.348 3.348 3.348z"></path>
<path d="M13 30c-0.26 0-0.516-0.102-0.707-0.293l-7.707-7.707h-3.586c-0.552 0-1-0.448-1-1v-10c0-0.552 0.448-1 1-1h3.586l7.707-7.707c0.286-0.286 0.716-0.372 1.090-0.217s0.617 0.519 0.617 0.924v26c0 0.404-0.244 0.769-0.617 0.924-0.124 0.051-0.254 0.076-0.383 0.076z"></path>
</symbol>
<symbol id="icon-make-group" viewBox="0 0 32 32">
<title>make-group</title>
<path d="M10 4h-4c-1.1 0-2 0.9-2 2v4c0 1.1 0.9 2 2 2h4c1.1 0 2-0.9 2-2v-4c0-1.1-0.9-2-2-2z"></path>
<path d="M22 12h4c1.1 0 2-0.9 2-2v-4c0-1.1-0.9-2-2-2h-4c-1.1 0-2 0.9-2 2v4c0 1.1 0.9 2 2 2zM22 6h4v4h-4v-4z"></path>
<path d="M10 20h-4c-1.1 0-2 0.9-2 2v4c0 1.1 0.9 2 2 2h4c1.1 0 2-0.9 2-2v-4c0-1.1-0.9-2-2-2zM10 26h-4v-4h4v4z"></path>
<path d="M26 20h-4c-1.1 0-2 0.9-2 2v4c0 1.1 0.9 2 2 2h4c1.1 0 2-0.9 2-2v-4c0-1.1-0.9-2-2-2z"></path>
<path d="M28 16h-2c-2.671 0-5.182-1.040-7.071-2.929s-2.929-4.4-2.929-7.071v-2c0-2.2-1.8-4-4-4h-8c-2.2 0-4 1.8-4 4v8c0 2.2 1.8 4 4 4h2c2.671 0 5.182 1.040 7.071 2.929s2.929 4.4 2.929 7.071v2c0 2.2 1.8 4 4 4h8c2.2 0 4-1.8 4-4v-8c0-2.2-1.8-4-4-4zM30 28c0 0.53-0.209 1.031-0.589 1.411s-0.881 0.589-1.411 0.589h-8c-0.53 0-1.031-0.209-1.411-0.589s-0.589-0.881-0.589-1.411v-2c0-6.627-5.373-12-12-12h-2c-0.53 0-1.031-0.209-1.411-0.589s-0.589-0.881-0.589-1.411v-8c0-0.53 0.209-1.031 0.589-1.411s0.881-0.589 1.411-0.589h8c0.53 0 1.031 0.209 1.411 0.589s0.589 0.881 0.589 1.411v2c0 6.627 5.373 12 12 12h2c0.53 0 1.031 0.209 1.411 0.589s0.589 0.881 0.589 1.411v8z"></path>
</symbol>
<symbol id="icon-instagram" viewBox="0 0 32 32">
<title>instagram</title>
<path d="M16 2.881c4.275 0 4.781 0.019 6.462 0.094 1.563 0.069 2.406 0.331 2.969 0.55 0.744 0.288 1.281 0.638 1.837 1.194 0.563 0.563 0.906 1.094 1.2 1.838 0.219 0.563 0.481 1.412 0.55 2.969 0.075 1.688 0.094 2.194 0.094 6.463s-0.019 4.781-0.094 6.463c-0.069 1.563-0.331 2.406-0.55 2.969-0.288 0.744-0.637 1.281-1.194 1.837-0.563 0.563-1.094 0.906-1.837 1.2-0.563 0.219-1.413 0.481-2.969 0.55-1.688 0.075-2.194 0.094-6.463 0.094s-4.781-0.019-6.463-0.094c-1.563-0.069-2.406-0.331-2.969-0.55-0.744-0.288-1.281-0.637-1.838-1.194-0.563-0.563-0.906-1.094-1.2-1.837-0.219-0.563-0.481-1.413-0.55-2.969-0.075-1.688-0.094-2.194-0.094-6.463s0.019-4.781 0.094-6.463c0.069-1.563 0.331-2.406 0.55-2.969 0.288-0.744 0.638-1.281 1.194-1.838 0.563-0.563 1.094-0.906 1.838-1.2 0.563-0.219 1.412-0.481 2.969-0.55 1.681-0.075 2.188-0.094 6.463-0.094zM16 0c-4.344 0-4.887 0.019-6.594 0.094-1.7 0.075-2.869 0.35-3.881 0.744-1.056 0.412-1.95 0.956-2.837 1.85-0.894 0.888-1.438 1.781-1.85 2.831-0.394 1.019-0.669 2.181-0.744 3.881-0.075 1.713-0.094 2.256-0.094 6.6s0.019 4.887 0.094 6.594c0.075 1.7 0.35 2.869 0.744 3.881 0.413 1.056 0.956 1.95 1.85 2.837 0.887 0.887 1.781 1.438 2.831 1.844 1.019 0.394 2.181 0.669 3.881 0.744 1.706 0.075 2.25 0.094 6.594 0.094s4.888-0.019 6.594-0.094c1.7-0.075 2.869-0.35 3.881-0.744 1.050-0.406 1.944-0.956 2.831-1.844s1.438-1.781 1.844-2.831c0.394-1.019 0.669-2.181 0.744-3.881 0.075-1.706 0.094-2.25 0.094-6.594s-0.019-4.887-0.094-6.594c-0.075-1.7-0.35-2.869-0.744-3.881-0.394-1.063-0.938-1.956-1.831-2.844-0.887-0.887-1.781-1.438-2.831-1.844-1.019-0.394-2.181-0.669-3.881-0.744-1.712-0.081-2.256-0.1-6.6-0.1v0z"></path>
<path d="M16 7.781c-4.537 0-8.219 3.681-8.219 8.219s3.681 8.219 8.219 8.219 8.219-3.681 8.219-8.219c0-4.537-3.681-8.219-8.219-8.219zM16 21.331c-2.944 0-5.331-2.387-5.331-5.331s2.387-5.331 5.331-5.331c2.944 0 5.331 2.387 5.331 5.331s-2.387 5.331-5.331 5.331z"></path>
<path d="M26.462 7.456c0 1.060-0.859 1.919-1.919 1.919s-1.919-0.859-1.919-1.919c0-1.060 0.859-1.919 1.919-1.919s1.919 0.859 1.919 1.919z"></path>
</symbol>
<symbol id="icon-spotify" viewBox="0 0 32 32">
<title>spotify</title>
<path d="M16 0c-8.8 0-16 7.2-16 16s7.2 16 16 16 16-7.2 16-16-7.119-16-16-16zM23.363 23.119c-0.319 0.481-0.881 0.637-1.363 0.319-3.762-2.319-8.481-2.8-14.081-1.519-0.563 0.163-1.037-0.238-1.2-0.719-0.162-0.563 0.237-1.038 0.719-1.2 6.081-1.363 11.363-0.8 15.519 1.762 0.563 0.238 0.644 0.875 0.406 1.356zM25.281 18.719c-0.4 0.563-1.119 0.8-1.681 0.4-4.319-2.637-10.881-3.438-15.919-1.837-0.638 0.163-1.362-0.163-1.519-0.8-0.162-0.637 0.162-1.363 0.8-1.519 5.838-1.762 13.037-0.881 18 2.163 0.475 0.238 0.719 1.038 0.319 1.594zM25.438 14.238c-5.119-3.037-13.681-3.363-18.563-1.838-0.8 0.238-1.6-0.238-1.838-0.963-0.237-0.8 0.237-1.6 0.963-1.838 5.681-1.681 15.038-1.363 20.962 2.162 0.719 0.4 0.962 1.363 0.563 2.081-0.406 0.556-1.363 0.794-2.087 0.394z"></path>
</symbol>
<symbol id="icon-twitter" viewBox="0 0 32 32">
<title>twitter</title>
<path d="M32 7.075c-1.175 0.525-2.444 0.875-3.769 1.031 1.356-0.813 2.394-2.1 2.887-3.631-1.269 0.75-2.675 1.3-4.169 1.594-1.2-1.275-2.906-2.069-4.794-2.069-3.625 0-6.563 2.938-6.563 6.563 0 0.512 0.056 1.012 0.169 1.494-5.456-0.275-10.294-2.888-13.531-6.862-0.563 0.969-0.887 2.1-0.887 3.3 0 2.275 1.156 4.287 2.919 5.463-1.075-0.031-2.087-0.331-2.975-0.819 0 0.025 0 0.056 0 0.081 0 3.181 2.263 5.838 5.269 6.437-0.55 0.15-1.131 0.231-1.731 0.231-0.425 0-0.831-0.044-1.237-0.119 0.838 2.606 3.263 4.506 6.131 4.563-2.25 1.762-5.075 2.813-8.156 2.813-0.531 0-1.050-0.031-1.569-0.094 2.913 1.869 6.362 2.95 10.069 2.95 12.075 0 18.681-10.006 18.681-18.681 0-0.287-0.006-0.569-0.019-0.85 1.281-0.919 2.394-2.075 3.275-3.394z"></path>
</symbol>
<symbol id="icon-github" viewBox="0 0 32 32">
<title>github</title>
<path d="M16 0.395c-8.836 0-16 7.163-16 16 0 7.069 4.585 13.067 10.942 15.182 0.8 0.148 1.094-0.347 1.094-0.77 0-0.381-0.015-1.642-0.022-2.979-4.452 0.968-5.391-1.888-5.391-1.888-0.728-1.849-1.776-2.341-1.776-2.341-1.452-0.993 0.11-0.973 0.11-0.973 1.606 0.113 2.452 1.649 2.452 1.649 1.427 2.446 3.743 1.739 4.656 1.33 0.143-1.034 0.558-1.74 1.016-2.14-3.554-0.404-7.29-1.777-7.29-7.907 0-1.747 0.625-3.174 1.649-4.295-0.166-0.403-0.714-2.030 0.155-4.234 0 0 1.344-0.43 4.401 1.64 1.276-0.355 2.645-0.532 4.005-0.539 1.359 0.006 2.729 0.184 4.008 0.539 3.054-2.070 4.395-1.64 4.395-1.64 0.871 2.204 0.323 3.831 0.157 4.234 1.026 1.12 1.647 2.548 1.647 4.295 0 6.145-3.743 7.498-7.306 7.895 0.574 0.497 1.085 1.47 1.085 2.963 0 2.141-0.019 3.864-0.019 4.391 0 0.426 0.288 0.925 1.099 0.768 6.354-2.118 10.933-8.113 10.933-15.18 0-8.837-7.164-16-16-16z"></path>
</symbol>
<symbol id="icon-envelope" viewBox="0 0 32 32">
<title>envelope</title>
<path d="M28 11.094v12.406c0 1.375-1.125 2.5-2.5 2.5h-23c-1.375 0-2.5-1.125-2.5-2.5v-12.406c0.469 0.516 1 0.969 1.578 1.359 2.594 1.766 5.219 3.531 7.766 5.391 1.313 0.969 2.938 2.156 4.641 2.156h0.031c1.703 0 3.328-1.188 4.641-2.156 2.547-1.844 5.172-3.625 7.781-5.391 0.562-0.391 1.094-0.844 1.563-1.359zM28 6.5c0 1.75-1.297 3.328-2.672 4.281-2.438 1.687-4.891 3.375-7.313 5.078-1.016 0.703-2.734 2.141-4 2.141h-0.031c-1.266 0-2.984-1.437-4-2.141-2.422-1.703-4.875-3.391-7.297-5.078-1.109-0.75-2.688-2.516-2.688-3.938 0-1.531 0.828-2.844 2.5-2.844h23c1.359 0 2.5 1.125 2.5 2.5z"></path>
</symbol>
<symbol id="icon-home" viewBox="0 0 32 32">
<title>home</title>
<path d="M32 18.451l-16-12.42-16 12.42v-5.064l16-12.42 16 12.42zM28 18v12h-8v-8h-8v8h-8v-12l12-9z"></path>
</symbol>
</defs>
</svg>